<svg viewBox="0 0 750 500" xmlns="http://www.w3.org/2000/svg">
  <defs>
    <clipPath id="clippath0" transform="">
      <path d="M 0 500 L 750 500 L 750 0 L 0 0 Z" style="fill: none; clip-rule: nonzero;"></path>
    </clipPath>
  </defs>
  <g class="page-1" transform="matrix(1, 0, 0, -1, -6.53542, 498.007233)">
    <g>
      <g>
        <g style="clip-path: url(#clippath0);">
          <g transform="translate(52.2959 397.793)">
            <path d="M 0 0 C -1.489 -2.608 -3.983 -4.545 -7.021 -5.457 C -13.024 -7.254 -19.388 -4.072 -21.512 1.792 C -21.696 2.301 -22.176 2.617 -22.687 2.617 C -22.829 2.617 -22.973 2.593 -23.113 2.542 C -23.156 2.526 -23.198 2.509 -23.238 2.489 C -23.919 8.237 -19.495 15.073 -13.701 16.811 C -7.689 18.612 -1.061 14.964 0.884 8.832 C 0.888 8.799 0.878 8.767 0.886 8.733 C 0.903 8.655 0.949 8.593 0.98 8.521 C 1.817 5.603 1.475 2.582 0 0 M 46.964 -27.457 C 42.879 -15.935 38.626 -7.958 32.797 -0.884 C 32.782 -0.741 32.752 -0.596 32.685 -0.459 C 29.062 6.878 19.154 11.341 8.521 11.039 C 9.593 16.36 4.996 37.318 1.284 45.169 C 0.989 45.793 0.243 46.061 -0.38 45.765 C -1.004 45.47 -1.271 44.725 -0.976 44.101 C 3.417 34.808 6.994 13.96 6.127 11.521 C 5.993 11.321 5.945 11.095 5.938 10.868 C 4.947 10.768 3.956 10.621 2.965 10.435 C 0.276 17.439 -7.281 21.347 -14.419 19.206 C -21.887 16.966 -27.252 7.998 -25.458 0.753 C -25.292 0.083 -24.613 -0.322 -23.945 -0.16 C -23.781 -0.12 -23.632 -0.048 -23.504 0.046 C -21.194 -5.201 -15.991 -8.459 -10.428 -8.459 C -9.063 -8.459 -7.675 -8.263 -6.304 -7.851 C 0.851 -5.705 5.021 1.097 3.673 8.023 C 4.789 8.226 5.896 8.384 6.983 8.47 C 8.888 4.544 5.905 -21.354 1.764 -26.364 C 1.324 -26.897 1.398 -27.685 1.931 -28.124 C 2.164 -28.317 2.446 -28.411 2.727 -28.411 C 3.086 -28.411 3.443 -28.256 3.69 -27.957 C 7.661 -23.153 11.04 -1.042 9.792 7.288 C 9.721 7.765 9.635 8.194 9.533 8.578 C 19.24 8.579 27.254 4.174 30.183 -1.115 C 28.272 -3.897 25.058 -10.558 21.942 -17.017 C 19.599 -21.875 17.385 -26.465 16.279 -28.204 C 15.908 -28.786 16.08 -29.559 16.663 -29.929 C 16.871 -30.062 17.103 -30.125 17.333 -30.125 C 17.746 -30.125 18.15 -29.92 18.388 -29.545 C 19.573 -27.683 21.715 -23.244 24.194 -18.103 C 26.848 -12.602 29.798 -6.49 31.656 -3.443 C 36.892 -10.046 40.813 -17.589 44.607 -28.292 C 44.789 -28.805 45.271 -29.125 45.786 -29.125 C 45.924 -29.125 46.065 -29.102 46.203 -29.053 C 46.854 -28.822 47.194 -28.108 46.964 -27.457" style="fill: rgb(0, 0, 0); fill-opacity: 1;"></path>
          </g>
        </g>
      </g>
      <g style="clip-path: url(#clippath0);">
        <g transform="translate(44.2808 398.4463)">
          <path d="M 0 0 L -1.561 -0.468 C -2.222 -0.667 -2.597 -1.364 -2.399 -2.025 C -2.236 -2.566 -1.74 -2.916 -1.202 -2.916 C -1.083 -2.916 -0.962 -2.899 -0.842 -2.863 L 0.719 -2.395 C 1.38 -2.196 1.755 -1.499 1.557 -0.838 C 1.358 -0.176 0.658 0.201 0 0" style="fill: rgb(0, 0, 0); fill-opacity: 1;"></path>
        </g>
      </g>
      <g style="clip-path: url(#clippath0);">
        <g transform="translate(42.4907 408.7666)">
          <path d="M 0 0 C -0.199 0.662 -0.896 1.036 -1.556 0.839 L -3.117 0.372 C -3.778 0.173 -4.154 -0.523 -3.957 -1.185 C -3.794 -1.727 -3.297 -2.077 -2.759 -2.077 C -2.641 -2.077 -2.52 -2.06 -2.4 -2.024 L -0.839 -1.556 C -0.178 -1.358 0.198 -0.662 0 0" style="fill: rgb(0, 0, 0); fill-opacity: 1;"></path>
        </g>
      </g>
      <g style="clip-path: url(#clippath0);">
        <g transform="translate(45.5923 407.2813)">
          <path d="M 0 0 C -0.593 0.353 -1.36 0.161 -1.714 -0.431 C -2.069 -1.024 -1.876 -1.792 -1.283 -2.146 C -0.696 -2.497 -0.243 -3.103 -0.073 -3.767 C 0.097 -4.43 -0.009 -5.179 -0.355 -5.771 C -0.704 -6.366 -0.504 -7.132 0.092 -7.481 C 0.29 -7.597 0.508 -7.652 0.723 -7.652 C 1.152 -7.652 1.57 -7.431 1.802 -7.034 C 2.484 -5.87 2.683 -4.453 2.349 -3.147 C 2.014 -1.839 1.158 -0.692 0 0" style="fill: rgb(0, 0, 0); fill-opacity: 1;"></path>
        </g>
      </g>
      <g style="clip-path: url(#clippath0);">
        <g transform="translate(38.8491 400.0737)">
          <path d="M 0 0 C -0.417 0.469 -0.862 0.912 -1.333 1.325 C -1.096 1.544 -0.89 1.816 -0.742 2.155 C -0.299 3.17 -0.599 4.416 -1.506 5.329 C -2.757 6.589 -4.745 6.926 -6.342 6.146 C -6.962 5.843 -7.219 5.094 -6.916 4.474 C -6.613 3.854 -5.865 3.597 -5.244 3.899 C -4.626 4.201 -3.764 4.054 -3.28 3.567 C -3.102 3.388 -3.035 3.193 -3.029 3.163 C -3.059 3.124 -3.22 2.985 -4.006 2.844 C -4.512 2.753 -4.911 2.363 -5.012 1.859 C -5.113 1.355 -4.895 0.841 -4.463 0.563 C -3.501 -0.058 -2.628 -0.805 -1.869 -1.66 C -1.58 -1.985 -1.27 -2.369 -1.164 -2.745 C -1.095 -2.987 -1.149 -3.196 -1.199 -3.244 C -1.208 -3.252 -1.292 -3.327 -1.558 -3.379 C -2.39 -3.542 -3.354 -3.125 -3.803 -2.408 C -4.17 -1.822 -4.942 -1.644 -5.526 -2.011 C -6.111 -2.377 -6.289 -3.148 -5.922 -3.734 C -5.075 -5.089 -3.516 -5.915 -1.932 -5.915 C -1.646 -5.915 -1.358 -5.888 -1.074 -5.832 C -0.412 -5.702 0.131 -5.436 0.539 -5.041 C 1.288 -4.316 1.557 -3.175 1.242 -2.063 C 0.997 -1.201 0.477 -0.536 0 0" style="fill: rgb(0, 0, 0); fill-opacity: 1;"></path>
        </g>
      </g>
    </g>
    <g>
      <g style="clip-path: url(#clippath0);">
        <g transform="translate(167.3171 67.6172)">
          <path d="M 0 0 C 0.158 5.434 1.358 10.927 5.311 12.42 C 9.741 14.094 16.117 10.536 19.559 8.075 C 11.566 7.789 4.236 4.819 0 0 M 44.607 15.682 C 37.322 17.866 29.956 14.289 27.326 7.493 C 26.077 7.725 24.827 7.907 23.581 8.004 C 21.457 10.12 11.49 17.402 4.451 14.768 C -0.615 12.871 -2.937 6.6 -2.459 -3.864 C -8.278 -10.932 -12.525 -18.904 -16.605 -30.412 C -16.836 -31.062 -16.495 -31.777 -15.844 -32.008 C -15.707 -32.057 -15.566 -32.08 -15.427 -32.08 C -14.912 -32.08 -14.43 -31.76 -14.249 -31.247 C -10.455 -20.545 -6.534 -13.002 -1.298 -6.398 C 0.561 -9.445 3.51 -15.556 6.164 -21.057 C 8.644 -26.198 10.785 -30.638 11.971 -32.501 C 12.209 -32.875 12.613 -33.08 13.026 -33.08 C 13.256 -33.08 13.488 -33.017 13.696 -32.884 C 14.279 -32.514 14.451 -31.741 14.08 -31.159 C 12.973 -29.42 10.76 -24.83 8.416 -19.971 C 5.3 -13.512 2.086 -6.851 0.176 -4.07 C 3.104 1.219 11.118 5.625 20.827 5.624 C 20.725 5.239 20.639 4.811 20.567 4.334 C 19.319 -3.997 22.698 -26.107 26.668 -30.912 C 26.915 -31.211 27.272 -31.366 27.632 -31.366 C 27.913 -31.366 28.195 -31.272 28.428 -31.079 C 28.96 -30.64 29.035 -29.852 28.595 -29.319 C 24.454 -24.309 21.471 1.588 23.374 5.516 C 24.44 5.432 25.524 5.277 26.617 5.081 C 25.986 1.849 26.463 -1.611 27.984 -4.603 C 29.774 -8.124 32.756 -10.662 36.38 -11.749 C 37.522 -12.091 38.695 -12.254 39.873 -12.254 C 45.808 -12.253 51.812 -8.109 54.044 -1.95 C 54.28 -1.301 53.944 -0.584 53.295 -0.349 C 52.647 -0.115 51.929 -0.449 51.694 -1.098 C 49.7 -6.602 43.361 -11.23 37.098 -9.354 C 31.13 -7.564 27.618 -0.925 29.242 5.297 C 29.348 5.437 29.432 5.596 29.473 5.779 C 29.496 5.886 29.483 5.99 29.479 6.094 C 31.465 11.986 37.707 15.14 43.889 13.287 C 50.1 11.424 56.684 3.827 55.228 -2.056 C 55.062 -2.726 55.471 -3.404 56.141 -3.57 C 56.808 -3.734 57.489 -3.327 57.655 -2.657 C 59.445 4.575 51.977 13.472 44.607 15.682" style="fill: rgb(0, 0, 0); fill-opacity: 1;"></path>
        </g>
      </g>
      <g style="clip-path: url(#clippath0);">
        <g transform="translate(204.9731 62.9204)">
          <path d="M 0 0 L 1.561 -0.468 C 1.681 -0.503 1.801 -0.52 1.92 -0.52 C 2.458 -0.52 2.955 -0.17 3.117 0.372 C 3.315 1.033 2.939 1.73 2.278 1.928 L 0.717 2.396 C 0.054 2.595 -0.641 2.218 -0.839 1.556 C -1.037 0.895 -0.661 0.198 0 0" style="fill: rgb(0, 0, 0); fill-opacity: 1;"></path>
        </g>
      </g>
      <g style="clip-path: url(#clippath0);">
        <g transform="translate(209.8794 73.6123)">
          <path d="M 0 0 C 0.12 -0.036 0.241 -0.053 0.36 -0.053 C 0.898 -0.053 1.395 0.296 1.557 0.837 C 1.756 1.499 1.381 2.196 0.72 2.395 L -0.841 2.863 C -1.505 3.064 -2.199 2.686 -2.398 2.025 C -2.597 1.364 -2.222 0.667 -1.561 0.468 Z" style="fill: rgb(0, 0, 0); fill-opacity: 1;"></path>
        </g>
      </g>
      <g style="clip-path: url(#clippath0);">
        <g transform="translate(205.6631 72.0054)">
          <path d="M 0 0 C 0.592 0.355 0.785 1.122 0.431 1.715 C 0.076 2.308 -0.692 2.499 -1.284 2.146 C -2.442 1.453 -3.298 0.306 -3.632 -1.001 C -3.967 -2.308 -3.768 -3.725 -3.086 -4.889 C -2.854 -5.286 -2.436 -5.507 -2.007 -5.507 C -1.792 -5.507 -1.574 -5.452 -1.376 -5.335 C -0.78 -4.986 -0.58 -4.221 -0.929 -3.625 C -1.275 -3.034 -1.38 -2.286 -1.21 -1.622 C -1.04 -0.958 -0.588 -0.352 0 0" style="fill: rgb(0, 0, 0); fill-opacity: 1;"></path>
        </g>
      </g>
      <g style="clip-path: url(#clippath0);">
        <g transform="translate(216.3667 70.8423)">
          <path d="M 0 0 C 0.623 -0.304 1.369 -0.045 1.672 0.574 C 1.975 1.195 1.718 1.943 1.098 2.246 C -0.499 3.026 -2.488 2.689 -3.738 1.43 C -4.645 0.517 -4.945 -0.729 -4.502 -1.745 C -4.354 -2.083 -4.148 -2.355 -3.912 -2.575 C -4.382 -2.987 -4.827 -3.429 -5.244 -3.898 C -5.721 -4.436 -6.242 -5.101 -6.486 -5.962 C -6.802 -7.075 -6.532 -8.216 -5.782 -8.94 C -5.375 -9.335 -4.833 -9.601 -4.17 -9.732 C -3.886 -9.788 -3.599 -9.815 -3.312 -9.815 C -1.729 -9.815 -0.17 -8.988 0.678 -7.633 C 1.044 -7.047 0.867 -6.276 0.282 -5.91 C -0.303 -5.544 -1.074 -5.721 -1.441 -6.307 C -1.89 -7.024 -2.854 -7.44 -3.686 -7.279 C -3.953 -7.227 -4.036 -7.152 -4.045 -7.143 C -4.095 -7.095 -4.149 -6.887 -4.081 -6.645 C -3.974 -6.268 -3.664 -5.884 -3.375 -5.559 C -2.615 -4.704 -1.742 -3.956 -0.781 -3.336 C -0.349 -3.058 -0.131 -2.544 -0.232 -2.04 C -0.333 -1.537 -0.732 -1.146 -1.238 -1.055 C -2.023 -0.915 -2.185 -0.775 -2.204 -0.767 C -2.21 -0.707 -2.142 -0.511 -1.964 -0.332 C -1.48 0.156 -0.619 0.303 0 0" style="fill: rgb(0, 0, 0); fill-opacity: 1;"></path>
        </g>
      </g>
    </g>
    <g>
      <g style="clip-path: url(#clippath0);">
        <g transform="translate(424.5068 409.4917)">
          <path d="M 0 0 C -0.692 -0.206 -1.401 -0.341 -2.115 -0.412 C -2.045 -0.306 -1.96 -0.212 -1.897 -0.101 C -1.238 1.076 -1.065 2.496 -1.425 3.797 C -1.609 4.462 -2.296 4.855 -2.963 4.668 C -3.628 4.485 -4.018 3.796 -3.834 3.131 C -3.652 2.47 -3.743 1.719 -4.078 1.123 C -4.413 0.525 -5.007 0.056 -5.665 -0.133 C -5.707 -0.145 -5.737 -0.175 -5.777 -0.191 C -6.822 0.036 -7.854 0.395 -8.847 0.9 C -11.468 2.233 -13.377 4.421 -14.418 6.953 C -14.123 6.598 -13.775 6.285 -13.38 6.034 C -12.817 5.675 -12.247 5.493 -11.685 5.493 L -11.667 5.493 C -10.625 5.499 -9.642 6.139 -9.102 7.162 C -8.685 7.953 -8.602 8.793 -8.576 9.512 C -8.554 10.139 -8.57 10.766 -8.626 11.39 C -8.307 11.389 -7.967 11.44 -7.626 11.583 C -6.606 12.011 -5.962 13.119 -5.987 14.407 C -6.022 16.182 -7.229 17.798 -8.922 18.336 C -9.582 18.545 -10.284 18.182 -10.492 17.523 C -10.701 16.865 -10.337 16.162 -9.679 15.953 C -9.024 15.745 -8.5 15.044 -8.487 14.358 C -8.482 14.104 -8.568 13.917 -8.584 13.891 C -8.637 13.881 -8.844 13.893 -9.513 14.335 C -9.941 14.619 -10.499 14.611 -10.92 14.316 C -11.34 14.021 -11.538 13.499 -11.417 12.999 C -11.149 11.887 -11.034 10.744 -11.074 9.602 C -11.09 9.166 -11.131 8.674 -11.313 8.329 C -11.431 8.106 -11.614 7.993 -11.684 7.993 C -11.673 7.992 -11.802 7.992 -12.036 8.142 C -12.751 8.597 -13.161 9.565 -12.99 10.395 C -12.851 11.071 -13.287 11.732 -13.962 11.872 C -14.52 11.984 -15.052 11.696 -15.304 11.215 C -15.336 12.866 -15.031 14.545 -14.327 16.147 C -14.048 16.78 -14.335 17.517 -14.967 17.795 C -15.009 17.814 -15.052 17.83 -15.094 17.843 C -11.62 22.472 -3.7 24.363 1.693 21.621 C 4.458 20.214 6.498 17.756 7.435 14.7 C 8.342 11.74 8.099 8.611 6.77 5.852 C 6.648 5.707 6.568 5.538 6.517 5.359 C 5.101 2.737 2.803 0.836 0 0 M 44.62 -39.902 C 42.302 -36.259 40.433 -31.955 38.624 -27.793 C 36.331 -22.516 33.955 -17.07 30.566 -12.604 C 30.557 -12.498 30.557 -12.391 30.519 -12.286 C 28.355 -6.304 20.115 0.56 14.265 4.035 C 18.306 20.151 9.655 30.572 -0.023 35.005 C -0.652 35.295 -1.393 35.017 -1.68 34.39 C -1.968 33.762 -1.692 33.02 -1.064 32.733 C 7.557 28.783 15.262 19.551 11.985 5.272 C 11.539 5.49 11.113 5.685 10.729 5.836 C 10.33 5.993 9.962 6.117 9.62 6.21 C 10.673 9.163 10.762 12.374 9.825 15.433 C 8.688 19.144 6.202 22.133 2.826 23.85 C -4.122 27.383 -14.194 24.6 -17.9 18.119 C -18.242 17.52 -18.034 16.756 -17.435 16.414 C -17.288 16.33 -17.131 16.279 -16.973 16.259 C -19.403 9.544 -16.456 1.965 -9.98 -1.329 C -7.837 -2.419 -5.537 -2.973 -3.254 -2.973 C -1.914 -2.972 -0.579 -2.781 0.714 -2.396 C 4.065 -1.397 6.823 0.839 8.566 3.911 C 9.161 3.844 10.121 3.467 11.316 2.843 C 11.291 2.817 11.257 2.804 11.233 2.775 C 7.09 -2.283 6.108 -12.125 8.143 -28.201 C 8.223 -28.832 8.761 -29.293 9.382 -29.293 C 9.434 -29.293 9.487 -29.29 9.541 -29.284 C 10.225 -29.197 10.71 -28.571 10.624 -27.886 C 8.707 -12.75 9.539 -3.238 13.167 1.191 C 13.281 1.33 13.356 1.486 13.401 1.648 C 18.595 -1.554 25.888 -7.57 28.009 -12.746 C 26.104 -15.487 22.863 -22.206 19.721 -28.719 C 17.378 -33.576 15.165 -38.164 14.059 -39.902 C 13.688 -40.485 13.86 -41.257 14.442 -41.628 C 14.65 -41.76 14.882 -41.823 15.112 -41.823 C 15.525 -41.823 15.93 -41.619 16.168 -41.244 C 17.353 -39.382 19.493 -34.944 21.972 -29.805 C 24.602 -24.353 27.523 -18.302 29.384 -15.227 C 32.181 -19.254 34.29 -24.09 36.331 -28.79 C 38.178 -33.04 40.087 -37.436 42.511 -41.244 C 42.749 -41.619 43.153 -41.823 43.566 -41.823 C 43.796 -41.823 44.028 -41.76 44.236 -41.628 C 44.819 -41.257 44.991 -40.485 44.62 -39.902" style="fill: rgb(0, 0, 0); fill-opacity: 1;"></path>
        </g>
      </g>
      <g style="clip-path: url(#clippath0);">
        <g transform="translate(421.3164 418.1855)">
          <path d="M 0 0 L -1.453 0.739 C -2.066 1.052 -2.82 0.807 -3.134 0.192 C -3.447 -0.424 -3.202 -1.176 -2.586 -1.489 L -1.135 -2.227 C -0.953 -2.32 -0.759 -2.364 -0.568 -2.364 C -0.113 -2.364 0.326 -2.115 0.546 -1.681 C 0.86 -1.066 0.615 -0.313 0 0" style="fill: rgb(0, 0, 0); fill-opacity: 1;"></path>
        </g>
      </g>
    </g>
    <g>
      <g style="clip-path: url(#clippath0);">
        <g transform="translate(565.9497 383.1465)">
          <path d="M 0 0 C -1.169 -0.823 -2.24 -1.58 -3.107 -2.252 C -3.291 3.631 -3.327 9.4 -3.266 14.919 C 4.089 11.108 6.887 7.366 6.889 5.825 C 6.682 4.706 2.335 1.645 0 0 M -6.028 24.145 C -14.476 31.632 -16.409 34.337 -16.497 35.275 C -14.271 39.107 -7.956 43.851 -4.465 46.383 C -4.881 40.185 -5.33 32.424 -5.586 23.751 C -5.73 23.88 -5.862 23.997 -6.028 24.145 M -13.956 66.356 C -13.956 72.884 -8.886 78.684 -2.884 79.022 C -2.195 79.06 -1.668 79.65 -1.706 80.34 C -1.733 80.806 -2.012 81.198 -2.402 81.391 C 3.396 80.818 8.012 72.816 8.012 66.356 C 8.012 59.745 3.602 55.127 -2.712 55.127 C -9.228 55.127 -13.956 59.85 -13.956 66.356 M 9.594 34.493 C 9.446 33.563 7.345 30.985 -1.563 24.049 C -2.252 23.513 -2.744 23.127 -3.112 22.816 C -2.859 31.955 -2.383 40.11 -1.948 46.543 C 1.319 43.846 7.568 38.553 9.594 34.493 M -3.227 17.694 C -3.211 18.581 -3.194 19.462 -3.175 20.333 C -3.064 20.288 -2.947 20.257 -2.824 20.245 C -2.784 20.241 -2.744 20.239 -2.704 20.239 C -2.292 20.239 -1.918 20.442 -1.689 20.762 C -1.42 20.992 -0.713 21.543 -0.027 22.077 C 9.969 29.86 12.977 33.242 11.895 35.479 C 9.547 40.332 2.417 46.192 -1.011 49.008 L -1.47 49.387 C -1.553 49.455 -1.649 49.488 -1.742 49.532 C -1.663 50.654 -1.587 51.703 -1.515 52.684 C 5.521 53.254 10.512 58.823 10.512 66.356 C 10.512 74.179 4.777 83.552 -2.616 83.913 C -3.309 83.944 -3.892 83.415 -3.925 82.726 C -3.952 82.184 -3.629 81.706 -3.155 81.509 C -10.379 81.025 -16.456 74.118 -16.456 66.356 C -16.456 58.972 -11.196 53.307 -4.021 52.689 C -4.092 51.711 -4.168 50.67 -4.246 49.555 C -4.335 49.519 -4.428 49.494 -4.509 49.436 L -4.993 49.086 C -8.592 46.494 -16.081 41.098 -18.731 36.405 C -19.953 34.241 -17.166 30.675 -7.687 22.273 C -7.035 21.696 -6.364 21.102 -6.11 20.855 C -6.002 20.68 -5.851 20.536 -5.673 20.434 C -5.918 9.69 -5.836 -2.27 -5.024 -14.312 C -4.979 -14.972 -4.43 -15.478 -3.778 -15.478 C -3.75 -15.478 -3.721 -15.477 -3.693 -15.475 C -3.004 -15.429 -2.483 -14.832 -2.53 -14.144 C -2.726 -11.232 -2.877 -8.326 -2.993 -5.439 C -2.943 -5.397 -2.882 -5.375 -2.837 -5.324 C -2.222 -4.623 -0.361 -3.312 1.44 -2.044 C 6.384 1.439 9.387 3.704 9.387 5.794 C 9.387 9.3 4.457 13.926 -3.227 17.694" style="fill: rgb(0, 0, 0); fill-opacity: 1;"></path>
        </g>
      </g>
      <g style="clip-path: url(#clippath0);">
        <g transform="translate(557.4121 452.019)">
          <path d="M 0 0 C -0.69 0 -1.25 -0.56 -1.25 -1.25 L -1.25 -2.879 C -1.25 -3.57 -0.69 -4.129 0 -4.129 C 0.69 -4.129 1.25 -3.57 1.25 -2.879 L 1.25 -1.25 C 1.25 -0.56 0.69 0 0 0" style="fill: rgb(0, 0, 0); fill-opacity: 1;"></path>
        </g>
      </g>
      <g style="clip-path: url(#clippath0);">
        <g transform="translate(563.8623 442.2705)">
          <path d="M 0 0 C 0.228 0.645 0.732 1.209 1.349 1.507 C 1.966 1.805 2.721 1.851 3.368 1.629 C 4.019 1.404 4.732 1.752 4.956 2.405 C 5.18 3.058 4.833 3.77 4.18 3.993 C 2.905 4.432 1.477 4.346 0.26 3.758 C -0.955 3.17 -1.909 2.104 -2.357 0.832 C -2.587 0.181 -2.246 -0.533 -1.595 -0.763 C -1.457 -0.811 -1.317 -0.835 -1.179 -0.835 C -0.664 -0.835 -0.181 -0.513 0 0" style="fill: rgb(0, 0, 0); fill-opacity: 1;"></path>
        </g>
      </g>
      <g style="clip-path: url(#clippath0);">
        <g transform="translate(567.8125 450.769)">
          <path d="M 0 0 L 0 -1.629 C 0 -2.32 0.56 -2.879 1.25 -2.879 C 1.94 -2.879 2.5 -2.32 2.5 -1.629 L 2.5 0 C 2.5 0.69 1.94 1.25 1.25 1.25 C 0.56 1.25 0 0.69 0 0" style="fill: rgb(0, 0, 0); fill-opacity: 1;"></path>
        </g>
      </g>
      <g style="clip-path: url(#clippath0);">
        <g transform="translate(563.1035 454.5503)">
          <path d="M 0 0 C 0.142 -0.29 0.343 -0.565 0.625 -0.804 C 1.469 -1.521 2.749 -1.592 3.885 -0.985 C 5.452 -0.148 6.345 1.66 6.057 3.413 C 5.945 4.093 5.3 4.558 4.62 4.443 C 3.939 4.331 3.478 3.688 3.59 3.006 C 3.701 2.329 3.314 1.544 2.708 1.221 C 2.486 1.103 2.279 1.095 2.248 1.097 C 2.219 1.137 2.133 1.332 2.224 2.125 C 2.282 2.636 2.021 3.13 1.568 3.371 C 1.116 3.611 0.56 3.551 0.169 3.217 C -0.699 2.475 -1.666 1.854 -2.705 1.372 C -3.099 1.189 -3.564 1.001 -3.947 1.007 C -4.199 1.011 -4.383 1.123 -4.414 1.185 C -4.42 1.196 -4.468 1.297 -4.441 1.567 C -4.359 2.41 -3.682 3.214 -2.865 3.439 C -2.199 3.622 -1.808 4.309 -1.99 4.975 C -2.172 5.64 -2.858 6.03 -3.527 5.85 C -5.348 5.35 -6.747 3.688 -6.93 1.809 C -6.995 1.137 -6.896 0.541 -6.635 0.037 C -6.156 -0.889 -5.14 -1.475 -3.984 -1.493 C -3.965 -1.493 -3.946 -1.493 -3.928 -1.493 C -3.056 -1.493 -2.289 -1.192 -1.651 -0.896 C -1.082 -0.631 -0.53 -0.332 0 0" style="fill: rgb(0, 0, 0); fill-opacity: 1;"></path>
        </g>
      </g>
    </g>
    <g>
      <g style="clip-path: url(#clippath0);">
        <g transform="translate(184.2695 269.8291)">
          <path d="M 0 0 C -2.841 0.63 -5.33 2.433 -7.009 5.074 C -10.51 10.582 -9.342 18.197 -4.458 21.702 C -3.897 22.104 -3.768 22.886 -4.171 23.446 C -4.415 23.787 -4.798 23.968 -5.187 23.968 C -5.232 23.968 -5.277 23.965 -5.321 23.961 C -2.285 25.496 1.771 24.664 5.312 22.626 C 5.357 22.546 5.388 22.46 5.452 22.388 C 5.91 21.876 6.003 21.006 5.665 20.408 C 5.541 20.188 5.371 20.07 5.344 20.057 C 5.297 20.075 5.12 20.193 4.771 20.911 C 4.546 21.373 4.067 21.647 3.55 21.611 C 3.038 21.571 2.602 21.222 2.452 20.731 C 2.117 19.638 1.634 18.596 1.017 17.632 C 0.782 17.266 0.497 16.863 0.164 16.658 C -0.051 16.525 -0.265 16.521 -0.327 16.558 C -0.337 16.564 -0.432 16.624 -0.554 16.865 C -0.937 17.621 -0.797 18.663 -0.227 19.29 C 0.236 19.802 0.198 20.592 -0.313 21.056 C -0.825 21.52 -1.615 21.481 -2.079 20.97 C -3.348 19.571 -3.638 17.418 -2.784 15.734 C -2.479 15.133 -2.075 14.683 -1.586 14.398 C -1.171 14.156 -0.699 14.036 -0.214 14.036 C 0.354 14.036 0.941 14.201 1.473 14.528 C 2.236 14.998 2.734 15.679 3.122 16.284 C 3.46 16.812 3.765 17.36 4.035 17.925 C 4.31 17.757 4.628 17.632 4.994 17.582 C 6.092 17.429 7.209 18.057 7.842 19.178 C 8.078 19.596 8.228 20.048 8.307 20.511 C 9.583 19.414 10.697 18.171 11.532 16.857 C 12.261 15.711 12.785 14.508 13.119 13.295 C 13.014 13.202 12.916 13.099 12.845 12.97 C 11.799 11.049 9.557 11.107 9.455 11.11 C 8.763 11.144 8.186 10.612 8.15 9.926 C 8.115 9.236 8.645 8.648 9.335 8.613 C 9.351 8.612 9.404 8.61 9.489 8.61 C 10.042 8.61 11.92 8.712 13.519 9.966 C 13.5 9.459 13.457 8.955 13.362 8.461 C 12.825 5.669 11.145 3.307 8.504 1.628 C 5.86 -0.053 2.839 -0.629 0 0 M 38.772 20.911 C 38.471 20.758 38.471 20.758 36.007 17.771 C 19.982 -1.653 14.132 -7.268 12.167 -8.269 C 12.23 -7.465 12.247 -6.671 12.218 -5.89 C 14.852 -5.262 20.724 0.3 37.936 21.162 C 39.013 22.468 39.949 23.603 40.172 23.845 C 40.585 24.214 40.717 24.828 40.453 25.346 C 40.14 25.961 39.387 26.205 38.772 25.892 C 38.471 25.739 38.471 25.739 36.007 22.752 C 19.322 2.529 13.667 -2.728 11.943 -3.39 C 11.713 -2.146 11.335 -0.95 10.797 0.187 C 13.453 2.181 15.225 4.91 15.817 7.988 C 16.463 11.349 15.691 14.975 13.642 18.198 C 9.446 24.801 -0.423 29.633 -6.855 25.974 C -7.455 25.632 -7.665 24.869 -7.323 24.27 C -7.055 23.798 -6.525 23.57 -6.022 23.656 C -11.857 19.372 -13.282 10.283 -9.119 3.733 C -7.081 0.527 -4.035 -1.665 -0.542 -2.44 C 0.389 -2.647 1.333 -2.749 2.279 -2.749 C 4.455 -2.749 6.635 -2.202 8.666 -1.151 C 13.411 -11.933 1.201 -30.703 -7.091 -36.303 C -7.373 -36.493 -7.55 -36.779 -7.613 -37.088 C -21.285 -49.468 -30.386 -58.955 -33.933 -64.53 C -34.304 -65.113 -34.132 -65.885 -33.549 -66.256 C -33.341 -66.388 -33.109 -66.451 -32.879 -66.451 C -32.466 -66.451 -32.062 -66.247 -31.824 -65.872 C -28.461 -60.587 -19.341 -51.095 -6.127 -39.116 C -4.661 -39.605 -2.363 -39.953 0.432 -40.371 C 5.229 -41.088 13.258 -42.288 14.31 -44.677 C 15.46 -47.289 11.929 -53.809 9.592 -58.123 C 7.537 -61.917 6.47 -63.96 6.585 -65.308 C 6.641 -65.956 7.182 -66.418 7.824 -66.418 C 7.849 -66.418 7.874 -66.417 7.899 -66.415 C 8.575 -66.377 9.095 -65.776 9.077 -65.101 C 9.057 -64.361 10.573 -61.562 11.791 -59.314 C 14.814 -53.73 18.242 -47.402 16.598 -43.669 C 14.991 -40.019 7.452 -38.892 0.801 -37.898 C -0.928 -37.64 -2.692 -37.376 -4.01 -37.096 C 1.869 -32.184 9.889 -21.157 11.807 -10.929 C 14.231 -10.816 19.76 -5.849 37.936 16.181 C 39.013 17.487 39.949 18.622 40.172 18.864 C 40.585 19.233 40.717 19.847 40.453 20.365 C 40.14 20.979 39.387 21.225 38.772 20.911" style="fill: rgb(0, 0, 0); fill-opacity: 1;"></path>
        </g>
      </g>
      <g style="clip-path: url(#clippath0);">
        <g transform="translate(189.1616 283.5049)">
          <path d="M 0 0 C -0.37 0.583 -1.142 0.755 -1.725 0.385 C -2.308 0.016 -2.48 -0.757 -2.11 -1.34 L -1.236 -2.716 C -0.998 -3.091 -0.593 -3.295 -0.18 -3.295 C 0.049 -3.295 0.282 -3.232 0.49 -3.1 C 1.072 -2.73 1.244 -1.958 0.874 -1.375 Z" style="fill: rgb(0, 0, 0); fill-opacity: 1;"></path>
        </g>
      </g>
    </g>
    <g>
      <g style="clip-path: url(#clippath0);">
        <g transform="translate(597.4956 205.2988)">
          <path d="M 0 0 C -3.544 5.571 -12.646 15.058 -26.32 27.442 C -26.383 27.751 -26.56 28.037 -26.842 28.227 C -34.312 33.272 -47.574 51.053 -42.63 62.316 C -40.746 61.463 -38.704 61.05 -36.66 61.05 C -31.705 61.05 -26.741 63.451 -24.008 67.75 C -19.838 74.312 -23.344 82.536 -29.143 86.696 C -29.704 87.099 -30.485 86.971 -30.887 86.409 C -31.289 85.849 -31.161 85.067 -30.6 84.665 C -25.745 81.182 -22.742 74.404 -26.118 69.091 C -29.609 63.6 -37.482 61.841 -42.965 65.327 C -45.986 67.246 -47.946 70.497 -48.591 73.929 C -47.669 73.403 -46.355 72.975 -44.5 72.975 C -44.359 72.975 -44.214 72.978 -44.067 72.983 C -43.377 73.006 -42.837 73.585 -42.861 74.275 C -42.885 74.965 -43.474 75.535 -44.153 75.481 C -47.37 75.381 -48.194 76.783 -48.252 76.892 C -48.365 77.137 -48.559 77.31 -48.777 77.435 C -48.628 79.217 -48.108 80.947 -47.148 82.457 C -46.031 84.214 -44.261 85.64 -42.203 86.661 C -42.413 85.672 -42.286 84.613 -41.775 83.708 C -41.141 82.587 -40.02 81.96 -38.926 82.112 C -38.56 82.163 -38.243 82.287 -37.968 82.455 C -37.698 81.89 -37.393 81.342 -37.055 80.814 C -36.667 80.209 -36.169 79.527 -35.406 79.059 C -34.874 78.732 -34.287 78.566 -33.718 78.566 C -33.234 78.566 -32.763 78.686 -32.349 78.927 C -31.858 79.212 -31.455 79.663 -31.149 80.265 C -30.295 81.949 -30.585 84.102 -31.854 85.5 C -32.317 86.012 -33.108 86.051 -33.619 85.587 C -34.13 85.123 -34.169 84.332 -33.705 83.821 C -33.136 83.193 -32.996 82.151 -33.378 81.396 C -33.501 81.154 -33.595 81.095 -33.608 81.087 C -33.667 81.052 -33.881 81.056 -34.097 81.189 C -34.43 81.394 -34.715 81.796 -34.95 82.163 C -35.566 83.125 -36.049 84.167 -36.385 85.262 C -36.536 85.753 -36.972 86.102 -37.484 86.141 C -37.995 86.186 -38.48 85.903 -38.705 85.441 C -39.053 84.723 -39.231 84.605 -39.245 84.589 C -39.304 84.601 -39.474 84.718 -39.598 84.938 C -39.936 85.536 -39.842 86.406 -39.384 86.918 C -39.149 87.181 -39.05 87.516 -39.073 87.842 C -35.587 88.774 -31.81 88.625 -29.044 87.051 C -28.446 86.712 -27.681 86.919 -27.339 87.519 C -26.998 88.119 -27.207 88.882 -27.807 89.224 C -34.356 92.951 -45.18 90.212 -49.258 83.798 C -53.282 77.465 -51.132 68.004 -44.802 63.57 C -45.321 62.441 -45.68 61.254 -45.898 60.024 C -46.349 60.053 -46.902 60.04 -47.632 60.016 C -51.583 59.886 -58.943 59.655 -61.534 66.74 C -63.185 71.256 -62.276 77.83 -58.831 86.279 C -58.434 87.255 -58.215 87.793 -58.77 88.397 C -59.236 88.904 -60.027 88.939 -60.536 88.472 C -60.74 88.285 -60.867 88.046 -60.917 87.794 C -60.96 87.675 -61.041 87.483 -61.146 87.223 C -64.833 78.18 -65.753 71 -63.881 65.881 C -61.106 58.293 -53.867 57.48 -49.418 57.48 C -48.717 57.48 -48.086 57.5 -47.552 57.518 C -47.067 57.533 -46.495 57.551 -46.15 57.539 C -46.165 57.035 -46.161 56.526 -46.137 56.012 C -46.605 55.893 -47.174 55.661 -47.952 55.341 C -51.61 53.837 -58.421 51.039 -63.33 56.765 C -66.459 60.415 -67.912 66.891 -67.648 76.011 C -67.618 77.065 -67.601 77.646 -68.333 78.017 C -68.95 78.329 -69.701 78.083 -70.013 77.467 C -70.138 77.221 -70.174 76.952 -70.132 76.699 C -70.131 76.573 -70.139 76.363 -70.147 76.083 C -70.43 66.322 -68.774 59.275 -65.228 55.138 C -62.417 51.859 -59.091 50.84 -55.966 50.84 C -52.325 50.841 -48.956 52.225 -47.002 53.029 C -46.622 53.185 -46.197 53.358 -45.872 53.476 C -44.289 43.535 -36.49 32.695 -29.953 27.428 C -31.269 27.15 -33.018 26.889 -34.734 26.632 C -41.385 25.638 -48.924 24.511 -50.531 20.861 C -52.175 17.128 -48.747 10.799 -45.723 5.216 C -44.505 2.967 -42.99 0.17 -43.009 -0.564 C -43.068 -1.252 -42.558 -1.857 -41.871 -1.917 C -41.834 -1.919 -41.798 -1.921 -41.762 -1.921 C -41.12 -1.921 -40.574 -1.429 -40.518 -0.778 C -40.403 0.57 -41.47 2.612 -43.524 6.407 C -45.861 10.721 -49.393 17.242 -48.243 19.854 C -47.191 22.243 -39.162 23.442 -34.364 24.16 C -31.569 24.577 -29.271 24.925 -27.805 25.414 C -14.589 13.432 -5.47 3.94 -2.109 -1.342 C -1.871 -1.716 -1.467 -1.921 -1.054 -1.921 C -0.824 -1.921 -0.592 -1.858 -0.384 -1.726 C 0.199 -1.355 0.371 -0.583 0 0" style="fill: rgb(0, 0, 0); fill-opacity: 1;"></path>
        </g>
      </g>
      <g style="clip-path: url(#clippath0);">
        <g transform="translate(558.6714 283.5059)">
          <path d="M 0 0 L -0.875 -1.375 C -1.245 -1.958 -1.073 -2.731 -0.491 -3.101 C -0.283 -3.233 -0.05 -3.296 0.179 -3.296 C 0.592 -3.296 0.997 -3.092 1.235 -2.717 L 2.109 -1.342 C 2.48 -0.759 2.308 0.014 1.726 0.384 C 1.143 0.753 0.37 0.583 0 0" style="fill: rgb(0, 0, 0); fill-opacity: 1;"></path>
        </g>
      </g>
    </g>
    <g>
      <g style="clip-path: url(#clippath0);">
        <g transform="translate(303.9648 415.8638)">
          <path d="M 0 0 C 0 4.74 2.505 8.753 6.261 10.667 C 5.171 9.891 4.407 8.663 4.275 7.314 C 4.21 6.643 4.309 6.047 4.57 5.542 C 5.049 4.616 6.065 4.03 7.221 4.013 C 7.24 4.013 7.259 4.012 7.277 4.012 C 8.149 4.012 8.916 4.313 9.554 4.609 C 10.124 4.874 10.675 5.173 11.205 5.505 C 11.348 5.216 11.549 4.94 11.831 4.701 C 12.676 3.985 13.955 3.915 15.09 4.521 C 16.657 5.357 17.55 7.165 17.262 8.918 C 17.15 9.599 16.509 10.063 15.825 9.949 C 15.144 9.837 14.683 9.194 14.795 8.512 C 14.906 7.834 14.519 7.05 13.912 6.726 C 13.689 6.607 13.484 6.598 13.453 6.602 C 13.424 6.642 13.338 6.837 13.429 7.631 C 13.487 8.141 13.227 8.635 12.773 8.876 C 12.32 9.117 11.765 9.057 11.374 8.723 C 10.506 7.98 9.54 7.359 8.5 6.877 C 8.106 6.694 7.648 6.506 7.258 6.513 C 7.006 6.516 6.822 6.628 6.791 6.69 C 6.766 6.738 6.744 6.867 6.764 7.072 C 6.846 7.914 7.523 8.72 8.34 8.944 C 9.006 9.127 9.397 9.815 9.215 10.48 C 9.065 11.023 8.581 11.364 8.045 11.38 C 8.878 11.633 9.749 11.803 10.659 11.854 C 11.348 11.892 11.875 12.483 11.837 13.172 C 11.829 13.31 11.799 13.44 11.751 13.562 C 17.519 12.56 21.711 5.851 21.711 0 C 21.711 -6.581 17.116 -11.358 10.785 -11.358 C 4.435 -11.358 0 -6.687 0 0 M 32.313 -8.92 C 31.932 -8.145 31.447 -6.501 30.834 -4.421 C 29.556 -0.087 27.625 6.461 24.085 14.215 C 23.798 14.843 23.057 15.12 22.429 14.833 C 21.801 14.546 21.524 13.805 21.811 13.177 C 25.278 5.584 27.178 -0.862 28.436 -5.128 C 28.958 -6.897 29.367 -8.285 29.746 -9.27 C 27.296 -10.9 16.335 -15.183 10.888 -16.238 C 10.917 -15.854 10.947 -15.453 10.979 -15.02 C 11.015 -14.515 10.743 -14.063 10.326 -13.836 C 10.48 -13.84 10.629 -13.858 10.785 -13.858 C 18.565 -13.858 24.211 -8.029 24.211 0 C 24.211 7.328 18.482 15.803 10.815 16.176 C 10.107 16.209 9.539 15.678 9.505 14.989 C 9.493 14.729 9.56 14.484 9.686 14.278 C 2.682 13.464 -2.5 7.47 -2.5 0 C -2.5 -7.493 2.368 -13.065 9.274 -13.776 C 8.844 -13.948 8.521 -14.346 8.485 -14.838 C 8.45 -15.329 8.416 -15.775 8.384 -16.201 C 2.875 -15.084 -7.861 -10.88 -10.282 -9.27 C -9.903 -8.285 -9.493 -6.896 -8.971 -5.126 C -7.714 -0.86 -5.813 5.586 -2.347 13.177 C -2.061 13.805 -2.337 14.547 -2.965 14.833 C -3.593 15.12 -4.335 14.843 -4.622 14.215 C -8.161 6.463 -10.092 -0.085 -11.369 -4.419 C -11.983 -6.5 -12.468 -8.145 -12.849 -8.92 C -13.057 -9.343 -13.038 -9.833 -12.797 -10.268 C -11.602 -12.426 2.344 -17.483 8.188 -18.69 C 7.97 -21.289 7.867 -21.941 7.803 -22.336 C 7.684 -23.078 7.674 -23.154 7.457 -29.616 C 7.324 -29.645 7.192 -29.683 7.069 -29.758 C 6.329 -30.211 2.64 -30.44 -0.324 -30.624 C -8.024 -31.103 -13.193 -31.588 -14.823 -33.875 C -15.314 -34.563 -15.451 -35.366 -15.22 -36.2 C -13.957 -40.761 -6.013 -44.489 2.383 -47.839 L 3.051 -48.105 C 3.203 -48.167 3.361 -48.196 3.516 -48.196 C 4.011 -48.196 4.48 -47.899 4.676 -47.411 C 4.933 -46.77 4.622 -46.042 3.981 -45.785 L 3.31 -45.517 C -0.797 -43.878 -11.704 -39.527 -12.811 -35.533 C -12.846 -35.407 -12.825 -35.378 -12.788 -35.326 C -11.727 -33.838 -4.492 -33.388 -0.168 -33.12 C 4.252 -32.845 6.883 -32.645 8.172 -31.988 C 9.461 -32.645 12.092 -32.845 16.512 -33.12 C 20.835 -33.388 28.071 -33.838 29.131 -35.326 C 29.169 -35.378 29.189 -35.407 29.155 -35.533 C 28.048 -39.527 17.142 -43.878 13.036 -45.516 L 12.362 -45.785 C 11.722 -46.043 11.411 -46.77 11.667 -47.411 C 11.863 -47.899 12.333 -48.196 12.828 -48.196 C 12.983 -48.196 13.141 -48.167 13.293 -48.105 L 13.962 -47.838 C 22.358 -44.489 30.301 -40.761 31.564 -36.2 C 31.795 -35.366 31.658 -34.563 31.167 -33.875 C 29.537 -31.588 24.368 -31.103 16.667 -30.624 C 14.24 -30.473 11.328 -30.292 9.947 -29.983 C 10.167 -23.397 10.176 -23.327 10.271 -22.732 C 10.346 -22.272 10.456 -21.577 10.687 -18.803 C 16.116 -17.845 31.023 -12.503 32.261 -10.268 C 32.501 -9.833 32.52 -9.342 32.313 -8.92" style="fill: rgb(0, 0, 0); fill-opacity: 1;"></path>
        </g>
      </g>
      <g style="clip-path: url(#clippath0);">
        <g transform="translate(318.3276 409.374)">
          <path d="M 0 0 C -0.234 0.649 -0.952 0.984 -1.6 0.751 C -3.695 -0.004 -6.202 0.748 -6.266 0.768 C -6.922 0.972 -7.624 0.61 -7.833 -0.047 C -8.041 -0.706 -7.677 -1.408 -7.018 -1.616 C -6.93 -1.645 -5.516 -2.083 -3.728 -2.083 C -2.792 -2.083 -1.754 -1.963 -0.751 -1.601 C -0.102 -1.366 0.234 -0.649 0 0" style="fill: rgb(0, 0, 0); fill-opacity: 1;"></path>
        </g>
      </g>
      <g style="clip-path: url(#clippath0);">
        <g transform="translate(312.333 416.8135)">
          <path d="M 0 0 C -0.438 0.535 -1.226 0.611 -1.759 0.173 C -3.18 -0.993 -4.026 -0.333 -4.325 0.009 C -4.762 0.532 -5.542 0.608 -6.072 0.177 C -6.608 -0.258 -6.689 -1.045 -6.254 -1.581 C -6.153 -1.706 -5.216 -2.808 -3.622 -2.969 C -3.49 -2.982 -3.359 -2.988 -3.229 -2.988 C -2.194 -2.988 -1.168 -2.576 -0.173 -1.759 C 0.36 -1.321 0.438 -0.534 0 0" style="fill: rgb(0, 0, 0); fill-opacity: 1;"></path>
        </g>
      </g>
      <g style="clip-path: url(#clippath0);">
        <g transform="translate(320.6709 413.8252)">
          <path d="M 0 0 C 0.131 0 0.262 0.006 0.394 0.02 C 1.988 0.181 2.925 1.282 3.026 1.407 C 3.456 1.936 3.375 2.703 2.854 3.142 C 2.333 3.581 1.548 3.511 1.099 3 C 0.801 2.659 -0.044 1.992 -1.469 3.162 C -2.002 3.599 -2.79 3.523 -3.228 2.988 C -3.667 2.455 -3.589 1.667 -3.055 1.229 C -2.06 0.412 -1.034 0 0 0" style="fill: rgb(0, 0, 0); fill-opacity: 1;"></path>
        </g>
      </g>
    </g>
    <g>
      <g style="clip-path: url(#clippath0);">
        <g transform="translate(184.7417 407.6948)">
          <path d="M 0 0 C -5.901 6.352 -6.528 8.247 -6.394 8.777 C -3.911 12.718 -0.144 17.189 2.618 19.59 C 2.13 12.168 1.74 5.15 1.438 -1.74 C 1.241 -1.342 0.794 -0.854 0 0 M 11.615 -25.997 C 9.33 -20.735 6.96 -15.308 3.587 -10.849 C 3.922 -0.896 4.425 9.032 5.14 19.844 C 7.65 17.233 11.084 12.135 13.185 7.8 C 13.273 7.223 12.438 5.409 5.867 -0.246 C 4.219 -1.663 3.876 -1.959 4.146 -2.809 C 4.297 -3.286 4.73 -3.634 5.228 -3.682 C 5.269 -3.685 5.31 -3.688 5.35 -3.688 C 5.796 -3.688 6.197 -3.45 6.418 -3.085 C 6.628 -2.889 7.085 -2.495 7.498 -2.141 C 13.431 2.965 16.634 6.401 15.448 8.853 C 13.132 13.641 8.846 20.153 5.684 22.761 C 5.581 22.845 5.464 22.893 5.347 22.94 C 5.422 24.027 5.501 25.134 5.581 26.242 C 12.678 26.855 18.277 33.118 18.277 40.743 C 18.277 48.404 12.149 57.956 4.539 58.327 C 3.834 58.355 3.263 57.829 3.23 57.14 C 3.196 56.45 3.727 55.864 4.417 55.83 C 10.429 55.537 15.777 47.149 15.777 40.743 C 15.777 34.402 11.152 29.199 5.304 28.727 C 5.1 28.926 4.838 29.069 4.532 29.091 C 4.16 29.117 3.823 28.969 3.575 28.726 C -2.687 29.191 -8.007 34.599 -8.007 40.743 C -8.007 44.039 -6.263 47.327 -3.673 49.72 C -4.092 49.094 -4.372 48.375 -4.446 47.615 C -4.511 46.943 -4.412 46.347 -4.151 45.843 C -3.673 44.917 -2.657 44.331 -1.5 44.313 C -1.481 44.313 -1.462 44.313 -1.444 44.313 C -0.572 44.313 0.195 44.614 0.833 44.91 C 1.402 45.174 1.953 45.473 2.484 45.806 C 2.626 45.516 2.827 45.241 3.109 45.002 C 3.954 44.285 5.233 44.214 6.369 44.821 C 7.936 45.657 8.829 47.465 8.54 49.218 C 8.429 49.899 7.786 50.362 7.105 50.249 C 6.423 50.137 5.962 49.494 6.074 48.813 C 6.185 48.135 5.798 47.35 5.191 47.026 C 4.968 46.907 4.764 46.897 4.732 46.902 C 4.703 46.943 4.616 47.137 4.707 47.93 C 4.766 48.44 4.506 48.935 4.052 49.176 C 3.599 49.417 3.044 49.357 2.653 49.023 C 1.784 48.28 0.817 47.659 -0.221 47.177 C -0.615 46.994 -1.072 46.808 -1.463 46.813 C -1.715 46.816 -1.898 46.929 -1.93 46.99 C -1.936 47.001 -1.984 47.103 -1.958 47.373 C -1.876 48.216 -1.198 49.02 -0.382 49.244 C 0.284 49.427 0.676 50.115 0.493 50.78 C 0.311 51.446 -0.377 51.836 -1.043 51.655 C -1.051 51.653 -1.058 51.649 -1.066 51.647 C 0.59 52.604 2.415 53.218 4.274 53.322 C 4.963 53.361 5.49 53.951 5.452 54.641 C 5.413 55.33 4.828 55.857 4.133 55.818 C -3.529 55.387 -10.507 48.202 -10.507 40.743 C -10.507 33.433 -4.303 26.974 3.075 26.253 C 2.995 25.123 2.913 23.989 2.837 22.88 C 2.807 22.864 2.774 22.862 2.745 22.843 C -0.689 20.603 -5.674 14.61 -8.509 10.11 C -9.961 7.805 -7.16 4.034 -1.831 -1.702 C -1.462 -2.1 -1.051 -2.542 -0.864 -2.76 C -0.669 -3.182 -0.244 -3.478 0.252 -3.485 L 0.271 -3.485 C 0.745 -3.485 1.183 -3.208 1.395 -2.785 C 1.28 -5.475 1.176 -8.153 1.086 -10.831 C -2.293 -15.293 -4.666 -20.728 -6.955 -25.996 C -8.763 -30.158 -10.633 -34.462 -12.951 -38.105 C -13.321 -38.688 -13.149 -39.46 -12.567 -39.831 C -12.359 -39.963 -12.127 -40.026 -11.897 -40.026 C -11.484 -40.026 -11.08 -39.822 -10.841 -39.447 C -8.418 -35.638 -6.508 -31.243 -4.662 -26.992 C -2.609 -22.268 -0.488 -17.408 2.33 -13.368 C 5.149 -17.408 7.27 -22.269 9.322 -26.993 C 11.169 -31.243 13.079 -35.639 15.502 -39.447 C 15.74 -39.822 16.145 -40.026 16.558 -40.026 C 16.787 -40.026 17.02 -39.963 17.227 -39.831 C 17.81 -39.46 17.982 -38.688 17.611 -38.105 C 15.294 -34.462 13.423 -30.159 11.615 -25.997" style="fill: rgb(0, 0, 0); fill-opacity: 1;"></path>
        </g>
      </g>
      <g style="clip-path: url(#clippath0);">
        <g transform="translate(183.6279 444.8218)">
          <path d="M 0 0 C -0.683 -0.087 -1.164 -0.71 -1.08 -1.393 C -0.995 -2.076 -0.374 -2.562 0.312 -2.48 C 0.342 -2.477 3.569 -2.12 5.191 -4.318 C 5.436 -4.65 5.814 -4.826 6.198 -4.826 C 6.456 -4.826 6.716 -4.747 6.939 -4.582 C 7.495 -4.172 7.612 -3.39 7.203 -2.834 C 4.7 0.559 0.189 0.027 0 0" style="fill: rgb(0, 0, 0); fill-opacity: 1;"></path>
        </g>
      </g>
      <g style="clip-path: url(#clippath0);">
        <g transform="translate(179.27 449.5615)">
          <path d="M 0 0 L 0 -1.63 C 0 -2.32 0.56 -2.88 1.25 -2.88 C 1.94 -2.88 2.5 -2.32 2.5 -1.63 L 2.5 0 C 2.5 0.691 1.94 1.25 1.25 1.25 C 0.56 1.25 0 0.691 0 0" style="fill: rgb(0, 0, 0); fill-opacity: 1;"></path>
        </g>
      </g>
      <g style="clip-path: url(#clippath0);">
        <g transform="translate(192.2524 445.8672)">
          <path d="M 0 0 C 0.691 0 1.25 0.56 1.25 1.25 L 1.25 2.879 C 1.25 3.57 0.691 4.129 0 4.129 C -0.69 4.129 -1.25 3.57 -1.25 2.879 L -1.25 1.25 C -1.25 0.56 -0.69 0 0 0" style="fill: rgb(0, 0, 0); fill-opacity: 1;"></path>
        </g>
      </g>
    </g>
    <g>
      <g style="clip-path: url(#clippath0);">
        <g transform="translate(675.5215 407.6948)">
          <path d="M 0 0 C -3.038 1.736 -6.152 3.52 -8.965 5.484 C -4.69 6.132 2.542 7.436 4.57 8.815 C 7.674 10.925 11.862 16.207 14.138 19.246 C 13.827 11.587 13.598 1.124 13.407 -8.928 C 9.474 -5.431 4.67 -2.669 0 0 M 4.68 41.147 C 4.68 43.85 5.544 46.42 6.966 48.536 C 6.928 48.366 6.89 48.195 6.873 48.02 C 6.808 47.349 6.907 46.753 7.168 46.247 C 7.647 45.321 8.663 44.736 9.819 44.718 C 9.837 44.718 9.856 44.718 9.875 44.718 C 10.747 44.718 11.514 45.019 12.151 45.315 C 12.721 45.58 13.272 45.879 13.803 46.211 C 13.945 45.921 14.147 45.646 14.428 45.407 C 15.273 44.69 16.552 44.621 17.687 45.226 C 19.255 46.063 20.148 47.871 19.859 49.624 C 19.747 50.305 19.104 50.769 18.423 50.654 C 17.742 50.543 17.28 49.899 17.393 49.218 C 17.504 48.54 17.117 47.755 16.51 47.432 C 16.287 47.313 16.082 47.307 16.051 47.307 C 16.022 47.348 15.935 47.543 16.026 48.336 C 16.085 48.847 15.824 49.341 15.371 49.582 C 14.917 49.823 14.362 49.761 13.972 49.428 C 13.104 48.686 12.137 48.065 11.098 47.582 C 10.703 47.399 10.258 47.234 9.856 47.218 C 9.604 47.222 9.42 47.335 9.389 47.396 C 9.383 47.406 9.335 47.508 9.361 47.778 C 9.443 48.621 10.121 49.425 10.938 49.649 C 11.604 49.832 11.995 50.52 11.813 51.186 C 11.65 51.779 11.083 52.129 10.491 52.075 C 12.023 53.082 13.761 53.71 15.588 53.813 C 16.277 53.851 16.805 54.441 16.766 55.131 C 16.758 55.281 16.723 55.424 16.667 55.555 C 22.343 54.55 28.4 47.294 28.4 41.147 C 28.4 34.789 22.257 28.777 15.76 28.777 C 9.651 28.777 4.68 34.326 4.68 41.147 M 36.202 43.698 C 35.528 43.675 34.942 43.163 34.928 42.472 C 34.792 35.351 33.702 28.491 32.618 27.803 C 27.465 25.687 20.366 24.013 17.116 24.146 C 17.031 24.148 16.955 24.119 16.874 24.105 C 16.917 24.843 16.961 25.534 17.006 26.159 C 17.011 26.224 16.988 26.282 16.983 26.344 C 24.41 27.024 30.9 33.768 30.9 41.147 C 30.9 49.058 23.154 57.803 15.831 58.161 C 15.137 58.192 14.555 57.662 14.521 56.973 C 14.508 56.706 14.58 56.454 14.713 56.244 C 7.847 55.427 2.18 48.693 2.18 41.147 C 2.18 33.408 7.609 27.038 14.515 26.346 C 14.514 26.344 14.513 26.343 14.513 26.341 C 14.449 25.457 14.388 24.453 14.329 23.355 C 14.095 23.27 13.877 23.138 13.724 22.919 C 13.659 22.826 7.162 13.6 3.165 10.882 C 1.127 9.497 -10.824 7.659 -12.202 7.556 C -12.219 7.556 -12.234 7.546 -12.251 7.545 C -12.331 7.539 -12.405 7.513 -12.483 7.492 C -12.561 7.471 -12.64 7.457 -12.711 7.422 C -12.773 7.391 -12.825 7.345 -12.882 7.304 C -12.957 7.25 -13.03 7.198 -13.091 7.129 C -13.105 7.113 -13.125 7.106 -13.139 7.089 C -13.172 7.048 -13.182 6.998 -13.209 6.955 C -13.256 6.879 -13.3 6.805 -13.331 6.719 C -13.358 6.641 -13.369 6.564 -13.381 6.483 C -13.389 6.43 -13.413 6.383 -13.414 6.327 C -13.414 6.3 -13.401 6.278 -13.4 6.251 C -13.396 6.164 -13.375 6.083 -13.353 5.998 C -13.334 5.923 -13.318 5.849 -13.285 5.78 C -13.253 5.711 -13.206 5.652 -13.161 5.589 C -13.11 5.518 -13.061 5.45 -12.996 5.391 C -12.976 5.373 -12.967 5.348 -12.946 5.332 C -9.424 2.507 -5.264 0.129 -1.24 -2.171 C 3.741 -5.018 8.892 -7.962 12.778 -11.736 C 12.943 -11.896 13.142 -11.981 13.349 -12.033 C 13.313 -14.029 13.277 -15.996 13.243 -17.906 C 13.085 -26.619 12.95 -34.144 12.796 -38.734 C 12.773 -39.424 13.314 -40.002 14.003 -40.026 C 14.018 -40.026 14.032 -40.026 14.046 -40.026 C 14.717 -40.026 15.272 -39.494 15.295 -38.818 C 15.449 -34.208 15.585 -26.674 15.742 -17.951 C 15.986 -4.443 16.28 11.879 16.749 21.712 C 16.837 21.689 16.919 21.651 17.013 21.647 C 17.176 21.641 17.344 21.638 17.517 21.638 C 21.704 21.638 28.842 23.55 33.567 25.49 C 36.668 26.764 37.317 36.647 37.428 42.424 C 37.441 43.114 36.893 43.685 36.202 43.698" style="fill: rgb(0, 0, 0); fill-opacity: 1;"></path>
        </g>
      </g>
      <g style="clip-path: url(#clippath0);">
        <g transform="translate(692.9297 443.2793)">
          <path d="M 0 0 C 0.41 0.556 0.292 1.338 -0.264 1.748 C -0.82 2.158 -1.602 2.04 -2.012 1.484 C -3.622 -0.699 -6.816 -0.362 -6.891 -0.354 C -7.575 -0.26 -8.198 -0.752 -8.285 -1.436 C -8.372 -2.121 -7.888 -2.747 -7.203 -2.834 C -7.155 -2.84 -6.834 -2.878 -6.341 -2.878 C -4.872 -2.878 -1.873 -2.539 0 0" style="fill: rgb(0, 0, 0); fill-opacity: 1;"></path>
        </g>
      </g>
      <g style="clip-path: url(#clippath0);">
        <g transform="translate(682.6187 451.2163)">
          <path d="M 0 0 C -0.69 0 -1.25 -0.56 -1.25 -1.25 L -1.25 -2.879 C -1.25 -3.57 -0.69 -4.129 0 -4.129 C 0.69 -4.129 1.25 -3.57 1.25 -2.879 L 1.25 -1.25 C 1.25 -0.56 0.69 0 0 0" style="fill: rgb(0, 0, 0); fill-opacity: 1;"></path>
        </g>
      </g>
      <g style="clip-path: url(#clippath0);">
        <g transform="translate(694.3516 446.2725)">
          <path d="M 0 0 C 0.69 0 1.25 0.56 1.25 1.25 L 1.25 2.879 C 1.25 3.57 0.69 4.129 0 4.129 C -0.69 4.129 -1.25 3.57 -1.25 2.879 L -1.25 1.25 C -1.25 0.56 -0.69 0 0 0" style="fill: rgb(0, 0, 0); fill-opacity: 1;"></path>
        </g>
      </g>
    </g>
    <g>
      <g style="clip-path: url(#clippath0);">
        <g transform="translate(39.4043 66.0684)">
          <path d="M 0 0 C -0.189 -0.107 -0.323 -0.263 -0.43 -0.435 C -0.45 -0.428 -0.462 -0.423 -0.484 -0.415 C -8.131 2.379 -12.894 5.695 -12.912 8.238 C -12.925 9.979 -9.061 11.426 -5.956 12.589 C -2.365 13.933 1.322 15.32 1.922 17.87 C 7.388 18.679 16.071 19.895 18.195 19.895 C 18.219 19.895 18.242 19.895 18.265 19.895 C 21.282 19.852 23.085 18.238 24.995 16.528 C 25.686 15.909 26.399 15.287 27.165 14.744 C 17.323 9.611 9.105 5.148 0 0 M 33.89 26.89 C 34.702 30.214 36.681 33.044 39.318 34.654 C 40.931 35.638 42.813 36.102 44.75 36.102 C 45.929 36.102 47.125 35.912 48.296 35.581 C 47.863 35.512 47.438 35.388 47.039 35.195 C 46.432 34.901 45.975 34.506 45.68 34.02 C 45.139 33.129 45.168 31.956 45.755 30.96 C 46.21 30.189 46.883 29.678 47.48 29.28 C 48.002 28.932 48.545 28.617 49.106 28.337 C 48.933 28.065 48.802 27.75 48.745 27.385 C 48.574 26.291 49.18 25.162 50.29 24.508 C 50.94 24.125 51.678 23.937 52.414 23.937 C 53.408 23.937 54.401 24.28 55.174 24.946 C 55.697 25.397 55.756 26.186 55.306 26.709 C 54.855 27.232 54.066 27.29 53.543 26.841 C 53.021 26.392 52.15 26.313 51.558 26.663 C 51.34 26.791 51.226 26.963 51.213 26.99 C 51.232 27.036 51.353 27.211 52.078 27.547 C 52.544 27.763 52.83 28.242 52.8 28.755 C 52.769 29.268 52.428 29.71 51.94 29.87 C 50.851 30.225 49.817 30.727 48.867 31.36 C 48.504 31.602 48.107 31.895 47.909 32.231 C 47.78 32.448 47.78 32.663 47.816 32.723 C 47.823 32.733 47.885 32.827 48.128 32.945 C 48.89 33.315 49.931 33.155 50.547 32.575 C 51.049 32.102 51.841 32.125 52.314 32.629 C 52.542 32.871 52.648 33.179 52.647 33.487 C 53.864 32.615 54.96 31.555 55.83 30.295 C 56.222 29.727 57.001 29.586 57.568 29.977 C 57.665 30.043 57.75 30.121 57.821 30.207 C 59.951 24.818 57.317 16.791 52.148 13.636 C 50.393 12.564 48.31 11.99 46.156 11.93 C 46.047 12.04 45.919 12.135 45.769 12.201 C 42.472 13.642 42.789 18.529 42.793 18.578 C 42.845 19.265 42.331 19.865 41.644 19.918 C 40.959 19.978 40.354 19.458 40.3 18.77 C 40.285 18.574 40.063 15.218 41.75 12.537 C 38.93 13.422 36.556 15.194 35.137 17.518 C 33.531 20.148 33.077 23.564 33.89 26.89 M 56.302 10.558 C 49.748 5.865 43.076 2.27 41.824 2.655 C 37.68 6.016 33.044 11.135 31.395 14.124 C 32.134 14.507 32.884 14.895 33.643 15.286 C 35.644 12.58 38.721 10.603 42.267 9.805 C 43.431 9.543 44.609 9.415 45.776 9.415 C 48.523 9.415 51.201 10.129 53.451 11.502 C 60.076 15.546 63.099 25.893 59.554 32.393 C 59.224 32.999 58.463 33.223 57.858 32.892 C 57.648 32.777 57.483 32.61 57.372 32.417 C 52.752 38.331 43.922 40.395 38.015 36.788 C 34.818 34.836 32.43 31.445 31.461 27.483 C 30.611 24.003 30.94 20.416 32.349 17.432 C 31.464 16.975 30.593 16.525 29.735 16.08 C 29.701 16.101 29.678 16.133 29.642 16.15 C 28.621 16.637 27.669 17.489 26.662 18.391 C 24.596 20.242 22.253 22.339 18.3 22.395 C 15.82 22.417 5.312 20.9 0.759 20.223 C 0.682 20.225 0.609 20.245 0.531 20.232 C 0.463 20.221 0.409 20.183 0.346 20.162 C -0.6 20.021 -1.221 19.926 -1.343 19.908 C -2.025 19.803 -2.494 19.165 -2.389 18.483 C -2.304 17.93 -1.862 17.531 -1.339 17.452 C -2.552 16.534 -4.854 15.671 -6.832 14.93 C -11.063 13.346 -15.438 11.708 -15.412 8.22 C -15.377 3.39 -7.779 -0.406 -1.39 -2.745 C -1.459 -12.325 -2.392 -30.03 -2.401 -30.214 C -2.438 -30.904 -1.909 -31.493 -1.22 -31.529 C -1.197 -31.53 -1.175 -31.531 -1.152 -31.531 C -0.492 -31.531 0.06 -31.014 0.095 -30.347 C 0.105 -30.158 1.076 -11.73 1.112 -2.224 C 1.151 -2.207 1.192 -2.198 1.23 -2.176 C 10.572 3.106 18.977 7.665 29.176 12.973 C 31.174 9.297 36.274 3.937 40.249 0.713 C 40.648 0.39 41.188 0.243 41.841 0.243 C 45.376 0.243 52.207 4.551 57.757 8.525 C 58.318 8.927 58.447 9.708 58.045 10.269 C 57.644 10.83 56.862 10.961 56.302 10.558" style="fill: rgb(0, 0, 0); fill-opacity: 1;"></path>
        </g>
      </g>
      <g style="clip-path: url(#clippath0);">
        <g transform="translate(84.6733 85.5391)">
          <path d="M 0 0 C 0.222 0 0.447 0.059 0.65 0.183 L 2.041 1.032 C 2.631 1.392 2.817 2.161 2.457 2.75 C 2.097 3.34 1.327 3.525 0.739 3.166 L -0.652 2.317 C -1.242 1.957 -1.428 1.188 -1.068 0.599 C -0.832 0.213 -0.421 0 0 0" style="fill: rgb(0, 0, 0); fill-opacity: 1;"></path>
        </g>
      </g>
    </g>
    <g>
      <g style="clip-path: url(#clippath0);">
        <g transform="translate(301.8901 284.147)">
          <path d="M 0 0 C 0 6.532 4.995 12.332 10.908 12.664 C 11.597 12.703 12.124 13.293 12.086 13.983 C 12.078 14.133 12.043 14.276 11.986 14.406 C 17.663 13.402 23.719 6.146 23.719 0 C 23.719 -6.359 17.577 -12.371 11.08 -12.371 C 4.97 -12.371 0 -6.821 0 0 M 37.593 2.55 C 37.108 2.55 36.687 2.273 36.48 1.869 C 34.769 -0.281 16.611 -16.092 12.137 -17.608 C 12.199 -16.746 12.262 -15.875 12.326 -14.989 C 12.331 -14.924 12.308 -14.866 12.303 -14.804 C 19.73 -14.124 26.219 -7.38 26.219 0 C 26.219 7.911 18.473 16.655 11.15 17.013 C 10.458 17.046 9.874 16.514 9.84 15.825 C 9.827 15.558 9.899 15.306 10.032 15.096 C 3.167 14.279 -2.5 7.545 -2.5 0 C -2.5 -7.74 2.929 -14.11 9.834 -14.802 C 9.834 -14.804 9.833 -14.805 9.833 -14.807 C 9.762 -15.79 9.692 -16.753 9.623 -17.707 C 6.024 -17.276 -13.429 -0.36 -15.203 1.869 C -15.41 2.273 -15.831 2.55 -16.316 2.55 C -17.007 2.55 -17.566 1.991 -17.566 1.3 C -17.566 0.686 -17.566 0.378 -11.863 -4.709 C -8.17 -8.003 -4.171 -11.354 -0.891 -13.904 C 5.601 -18.949 8.204 -20.062 9.444 -20.219 C 8.687 -30.863 8.111 -40.078 7.725 -51.566 C 2.994 -57.798 2.367 -62.881 1.357 -71.197 C 1.068 -73.573 0.741 -76.267 0.273 -79.33 C 0.169 -80.013 0.638 -80.65 1.32 -80.755 C 1.384 -80.765 1.448 -80.769 1.51 -80.769 C 2.117 -80.769 2.65 -80.326 2.745 -79.708 C 3.218 -76.607 3.548 -73.893 3.839 -71.498 C 4.842 -63.24 5.402 -58.664 9.866 -52.875 C 14.351 -49.379 21.619 -44.797 24.008 -45.402 C 24.245 -45.461 24.327 -45.556 24.395 -45.711 C 25.787 -48.874 25.644 -55.191 25.539 -59.803 C 25.484 -62.211 25.441 -64.112 25.608 -65.235 C 25.701 -65.856 26.234 -66.302 26.843 -66.302 C 26.904 -66.302 26.966 -66.297 27.028 -66.288 C 27.711 -66.187 28.183 -65.551 28.081 -64.868 C 27.945 -63.956 27.989 -62.058 28.039 -59.86 C 28.148 -55.013 28.299 -48.374 26.683 -44.703 C 26.291 -43.814 25.576 -43.217 24.615 -42.977 C 21.07 -42.089 14.026 -46.716 10.303 -49.421 C 10.687 -38.923 11.24 -30.203 11.951 -20.203 C 13.236 -19.99 15.878 -18.792 22.166 -13.905 C 25.446 -11.356 29.446 -8.004 33.139 -4.71 C 38.843 0.378 38.843 0.686 38.843 1.3 C 38.843 1.991 38.284 2.55 37.593 2.55" style="fill: rgb(0, 0, 0); fill-opacity: 1;"></path>
        </g>
      </g>
      <g style="clip-path: url(#clippath0);">
        <g transform="translate(308.5571 285.6411)">
          <path d="M 0 0 L 0 1.63 C 0 2.32 -0.56 2.88 -1.25 2.88 C -1.94 2.88 -2.5 2.32 -2.5 1.63 L -2.5 0 C -2.5 -0.69 -1.94 -1.25 -1.25 -1.25 C -0.56 -1.25 0 -0.69 0 0" style="fill: rgb(0, 0, 0); fill-opacity: 1;"></path>
        </g>
      </g>
      <g style="clip-path: url(#clippath0);">
        <g transform="translate(319.04 287.7061)">
          <path d="M 0 0 C -0.69 0 -1.25 -0.56 -1.25 -1.25 L -1.25 -2.879 C -1.25 -3.57 -0.69 -4.129 0 -4.129 C 0.69 -4.129 1.25 -3.57 1.25 -2.879 L 1.25 -1.25 C 1.25 -0.56 0.69 0 0 0" style="fill: rgb(0, 0, 0); fill-opacity: 1;"></path>
        </g>
      </g>
      <g style="clip-path: url(#clippath0);">
        <g transform="translate(310.458 287.7173)">
          <path d="M 0 0 C 0.019 0 0.038 0 0.056 0 C 0.928 0 1.696 0.301 2.333 0.597 C 2.902 0.861 3.454 1.16 3.984 1.493 C 4.126 1.203 4.328 0.928 4.609 0.689 C 5.455 -0.028 6.734 -0.098 7.87 0.508 C 9.412 1.332 10.325 3.181 10.041 4.906 C 9.929 5.587 9.284 6.049 8.604 5.936 C 7.923 5.824 7.462 5.181 7.574 4.5 C 7.686 3.822 7.298 3.037 6.692 2.713 C 6.471 2.595 6.267 2.583 6.232 2.589 C 6.204 2.63 6.117 2.824 6.207 3.617 C 6.266 4.127 6.007 4.622 5.553 4.863 C 5.1 5.105 4.544 5.043 4.154 4.71 C 3.283 3.967 2.316 3.346 1.28 2.864 C 0.885 2.681 0.422 2.508 0.037 2.5 C -0.215 2.503 -0.398 2.616 -0.43 2.677 C -0.436 2.688 -0.483 2.79 -0.457 3.06 C -0.375 3.903 0.302 4.707 1.119 4.931 C 1.785 5.114 2.176 5.802 1.994 6.467 C 1.811 7.133 1.122 7.522 0.457 7.342 C -1.364 6.843 -2.763 5.181 -2.945 3.302 C -3.011 2.63 -2.912 2.034 -2.651 1.53 C -2.172 0.604 -1.157 0.018 0 0" style="fill: rgb(0, 0, 0); fill-opacity: 1;"></path>
        </g>
      </g>
      <g style="clip-path: url(#clippath0);">
        <g transform="translate(310.8774 279.9863)">
          <path d="M 0 0 C 1.276 0.327 3.243 0.35 4.891 0.25 C 4.442 -0.697 3.651 -1.803 2.385 -1.886 C 1.083 -1.973 0.357 -0.86 0 0 M 2.547 -4.381 C 6.667 -4.112 7.778 0.878 7.823 1.091 C 7.896 1.434 7.822 1.791 7.619 2.076 C 7.416 2.362 7.103 2.549 6.755 2.592 C 6.105 2.672 0.323 3.337 -2.187 1.784 C -2.626 1.512 -2.854 0.997 -2.757 0.488 C -2.43 -1.236 -0.974 -4.392 2.222 -4.392 C 2.328 -4.392 2.437 -4.388 2.547 -4.381" style="fill: rgb(0, 0, 0); fill-opacity: 1;"></path>
        </g>
      </g>
    </g>
    <g>
      <g style="clip-path: url(#clippath0);">
        <g transform="translate(479.6016 224.1548)">
          <path d="M 0 0 L -1.627 -0.095 C -2.316 -0.135 -2.842 -0.727 -2.802 -1.416 C -2.763 -2.08 -2.212 -2.593 -1.555 -2.593 C -1.53 -2.593 -1.505 -2.592 -1.48 -2.591 L 0.146 -2.496 C 0.835 -2.456 1.361 -1.864 1.321 -1.175 C 1.281 -0.486 0.69 0.047 0 0" style="fill: rgb(0, 0, 0); fill-opacity: 1;"></path>
        </g>
      </g>
      <g style="clip-path: url(#clippath0);">
        <g transform="translate(488.9126 229.6528)">
          <path d="M 0 0 C 0.078 -0.685 0.695 -1.183 1.384 -1.099 C 1.421 -1.095 1.457 -1.089 1.493 -1.082 C 1.189 -3.576 -0.168 -5.862 -2.055 -7.691 C -2.137 -7.692 -2.218 -7.677 -2.301 -7.696 C -2.971 -7.848 -3.778 -7.505 -4.136 -6.919 C -4.268 -6.704 -4.288 -6.498 -4.286 -6.467 C -4.247 -6.436 -4.059 -6.339 -3.261 -6.383 C -2.743 -6.416 -2.27 -6.124 -2.056 -5.657 C -1.841 -5.19 -1.934 -4.639 -2.29 -4.269 C -3.082 -3.445 -3.757 -2.516 -4.299 -1.506 C -4.505 -1.124 -4.718 -0.68 -4.734 -0.288 C -4.746 -0.036 -4.644 0.154 -4.585 0.189 C -4.538 0.217 -4.41 0.248 -4.204 0.238 C -3.358 0.206 -2.515 -0.424 -2.244 -1.227 C -2.024 -1.88 -1.314 -2.232 -0.66 -2.011 C -0.006 -1.79 0.345 -1.081 0.124 -0.427 C -0.48 1.362 -2.22 2.663 -4.106 2.736 C -4.773 2.763 -5.368 2.629 -5.859 2.34 C -6.756 1.808 -7.282 0.76 -7.232 -0.396 C -7.193 -1.292 -6.841 -2.059 -6.501 -2.69 C -6.204 -3.243 -5.874 -3.776 -5.511 -4.287 C -5.792 -4.445 -6.055 -4.662 -6.277 -4.956 C -6.944 -5.84 -6.941 -7.122 -6.27 -8.222 C -5.876 -8.865 -5.314 -9.375 -4.666 -9.721 C -6.724 -11.004 -9.048 -11.815 -11.25 -11.943 C -12.414 -12.01 -13.602 -11.916 -14.767 -11.676 C -15.349 -10.14 -15.108 -7.815 -14.948 -6.985 C -14.817 -6.308 -15.259 -5.652 -15.936 -5.52 C -16.608 -5.389 -17.269 -5.829 -17.401 -6.505 C -17.459 -6.801 -17.814 -8.763 -17.544 -10.788 C -21.311 -9.159 -24.322 -5.912 -24.574 -1.556 C -24.747 1.42 -23.548 4.254 -21.198 6.425 C -18.933 8.517 -15.771 9.825 -12.523 10.013 C -12.275 10.028 -12.029 10.035 -11.784 10.035 C -5.764 10.035 -0.659 5.749 0 0 M -27.05 -0.117 C -27.058 -0.221 -27.067 -0.324 -27.072 -0.428 C -27.251 -0.426 -27.426 -0.423 -27.604 -0.421 Z M 7.306 13.154 C 7.049 13.795 6.32 14.109 5.681 13.851 L -3.665 10.115 C -6.216 11.792 -9.343 12.701 -12.668 12.509 C -16.484 12.288 -20.211 10.74 -22.895 8.261 C -24.528 6.753 -25.693 4.97 -26.379 3.041 C -26.466 3.016 -26.556 3.005 -26.64 2.96 L -32.68 -0.352 C -43.152 -0.219 -52.286 -0.183 -63.617 -0.46 C -63.638 -0.46 -63.654 -0.471 -63.674 -0.473 C -70.902 1.65 -90.696 11.411 -90.896 11.509 C -91.515 11.815 -92.264 11.562 -92.57 10.942 C -92.875 10.323 -92.622 9.574 -92.003 9.268 C -91.202 8.872 -72.898 -0.154 -65.036 -2.671 C -64.218 -8.28 -64.185 -16.049 -66.641 -17.13 C -70.558 -18.855 -81.876 -18.583 -85.904 -18.333 C -86.599 -18.3 -87.187 -18.814 -87.229 -19.503 C -87.272 -20.192 -86.749 -20.786 -86.06 -20.829 C -85.79 -20.845 -82.874 -21.021 -79.232 -21.021 C -74.524 -21.021 -68.606 -20.728 -65.634 -19.418 C -61.055 -17.403 -61.901 -7.199 -62.472 -2.934 C -52.386 -2.703 -43.983 -2.719 -34.678 -2.828 C -37.101 -8.232 -35.882 -17.471 -35.822 -17.912 C -35.737 -18.532 -35.208 -18.993 -34.583 -18.993 L -24.02 -18.991 C -23.329 -18.991 -22.77 -18.432 -22.77 -17.741 C -22.77 -17.051 -23.329 -16.491 -24.02 -16.491 L -33.47 -16.493 C -33.822 -12.927 -33.989 -5.961 -31.85 -2.863 C -30.247 -2.883 -28.613 -2.906 -26.931 -2.931 C -25.878 -9.533 -19.572 -14.468 -12.095 -14.468 C -11.767 -14.468 -11.436 -14.458 -11.105 -14.439 C -3.888 -14.02 4.13 -7.719 4.058 0.085 C 4.051 0.772 3.493 1.324 2.808 1.324 L 2.796 1.324 C 2.635 1.322 2.481 1.291 2.34 1.233 C 1.824 3.983 0.463 6.41 -1.447 8.309 L 6.609 11.529 C 7.25 11.786 7.562 12.513 7.306 13.154" style="fill: rgb(0, 0, 0); fill-opacity: 1;"></path>
        </g>
      </g>
    </g>
    <g>
      <g style="clip-path: url(#clippath0);">
        <g transform="translate(71.6263 224.3153)">
          <path d="M 0 0 C 0.044 0.785 0.199 2.258 0.411 4.255 C 0.71 7.071 1.117 10.921 1.544 15.855 C 4.055 13.244 7.492 8.139 9.605 3.771 C 9.691 3.593 9.889 2.577 5.313 0.056 C 4.802 -0.226 4.317 -0.501 4.108 -0.934 C 2.242 -1.026 0.885 -0.901 0 0 M -9.902 36.75 C -9.902 43.399 -5.156 49.075 0.677 49.404 C 1.366 49.442 1.893 50.032 1.855 50.722 C 1.842 50.937 1.777 51.137 1.671 51.308 C 7.572 50.338 12.908 42.604 12.908 36.75 C 12.908 30.122 7.273 24.307 0.848 24.307 C -5.881 24.307 -9.902 30.634 -9.902 36.75 M 8.627 -0.889 C 10.73 0.488 12.983 2.528 11.856 4.86 C 9.54 9.648 5.255 16.159 2.09 18.768 C 2.002 18.841 1.899 18.879 1.799 18.924 C 1.876 19.871 1.952 20.855 2.027 21.873 C 9.28 22.536 15.408 29.197 15.408 36.75 C 15.408 44.151 8.725 53.518 0.925 53.898 C 0.22 53.929 -0.351 53.4 -0.385 52.711 C -0.401 52.383 -0.289 52.08 -0.095 51.847 C -6.936 51.094 -12.402 44.466 -12.402 36.75 C -12.402 28.877 -7.263 22.609 -0.479 21.88 C -0.556 20.853 -0.633 19.861 -0.71 18.906 C -0.755 18.884 -0.805 18.879 -0.848 18.851 C -2.718 17.631 -9.249 11.928 -15.011 6.896 C -18.265 4.054 -21.627 1.119 -22.271 0.657 C -22.678 0.457 -22.962 0.041 -22.97 -0.444 C -22.981 -1.135 -22.431 -1.704 -21.741 -1.715 C -21.715 -1.715 -21.691 -1.715 -21.667 -1.715 C -21.072 -1.715 -20.786 -1.466 -13.367 5.013 C -9.207 8.646 -3.802 13.365 -0.986 15.622 C -1.396 10.926 -1.786 7.238 -2.074 4.52 C -2.294 2.45 -2.445 1.022 -2.495 0.166 C -4.98 -1.744 -9.169 -4.122 -14.004 -6.858 C -20.315 -10.431 -27.467 -14.479 -32.896 -18.701 C -33.441 -19.124 -33.539 -19.91 -33.116 -20.455 C -32.869 -20.771 -32.5 -20.937 -32.128 -20.937 C -31.86 -20.937 -31.59 -20.851 -31.362 -20.674 C -26.076 -16.564 -19.009 -12.564 -12.773 -9.034 C -8.12 -6.401 -4.043 -4.09 -1.386 -2.133 C 0.511 -3.697 3.122 -3.518 5.28 -3.368 C 8.072 -3.17 9.353 -3.221 9.931 -4.523 C 11.815 -8.772 8.905 -15.804 7.809 -18.451 C 7.681 -18.76 7.572 -19.022 7.491 -19.231 C 7.238 -19.873 7.555 -20.599 8.198 -20.851 C 8.348 -20.91 8.502 -20.938 8.654 -20.938 C 9.153 -20.938 9.625 -20.637 9.818 -20.144 C 9.895 -19.947 9.998 -19.699 10.119 -19.407 C 11.441 -16.214 14.535 -8.738 12.216 -3.509 C 11.457 -1.798 10.114 -1.122 8.627 -0.889" style="fill: rgb(0, 0, 0); fill-opacity: 1;"></path>
        </g>
      </g>
      <g style="clip-path: url(#clippath0);">
        <g transform="translate(69.4292 257.2368)">
          <path d="M 0 0 L 0 1.629 C 0 2.32 -0.56 2.879 -1.25 2.879 C -1.94 2.879 -2.5 2.32 -2.5 1.629 L -2.5 0 C -2.5 -0.69 -1.94 -1.25 -1.25 -1.25 C -0.56 -1.25 0 -0.69 0 0" style="fill: rgb(0, 0, 0); fill-opacity: 1;"></path>
        </g>
      </g>
      <g style="clip-path: url(#clippath0);">
        <g transform="translate(78.6621 258.0513)">
          <path d="M 0 0 L 0 -1.629 C 0 -2.32 0.56 -2.879 1.25 -2.879 C 1.94 -2.879 2.5 -2.32 2.5 -1.629 L 2.5 0 C 2.5 0.69 1.94 1.25 1.25 1.25 C 0.56 1.25 0 0.69 0 0" style="fill: rgb(0, 0, 0); fill-opacity: 1;"></path>
        </g>
      </g>
      <g style="clip-path: url(#clippath0);">
        <g transform="translate(69.8945 264.6362)">
          <path d="M 0 0 C 0.019 0 0.038 0 0.056 0 C 0.927 0 1.695 0.301 2.333 0.597 C 2.902 0.861 3.454 1.161 3.984 1.493 C 4.127 1.203 4.328 0.928 4.609 0.689 C 5.454 -0.028 6.733 -0.099 7.869 0.508 C 9.436 1.344 10.329 3.152 10.041 4.906 C 9.928 5.587 9.286 6.049 8.604 5.936 C 7.923 5.824 7.462 5.181 7.574 4.5 C 7.685 3.822 7.298 3.037 6.691 2.713 C 6.469 2.595 6.262 2.583 6.232 2.589 C 6.204 2.63 6.117 2.824 6.208 3.618 C 6.266 4.128 6.005 4.623 5.552 4.864 C 5.099 5.104 4.543 5.044 4.153 4.71 C 3.285 3.967 2.318 3.346 1.28 2.864 C 0.885 2.681 0.441 2.505 0.037 2.5 C -0.215 2.503 -0.398 2.615 -0.431 2.679 C -0.436 2.69 -0.484 2.79 -0.458 3.059 C -0.376 3.902 0.302 4.707 1.119 4.931 C 1.785 5.114 2.176 5.802 1.994 6.468 C 1.811 7.133 1.125 7.523 0.457 7.342 C -1.363 6.842 -2.763 5.18 -2.946 3.301 C -3.011 2.629 -2.912 2.032 -2.651 1.53 C -2.173 0.603 -1.157 0.018 0 0" style="fill: rgb(0, 0, 0); fill-opacity: 1;"></path>
        </g>
      </g>
      <g style="clip-path: url(#clippath0);">
        <g transform="translate(76.8535 250.6318)">
          <path d="M 0 0 C 0.649 0.236 0.983 0.953 0.748 1.602 C 0.512 2.251 -0.206 2.583 -0.854 2.35 C -2.655 1.693 -5.373 2.519 -6.271 2.894 C -6.909 3.164 -7.64 2.864 -7.908 2.228 C -8.176 1.591 -7.878 0.858 -7.242 0.59 C -7.117 0.538 -4.871 -0.393 -2.451 -0.393 C -1.628 -0.393 -0.786 -0.286 0 0" style="fill: rgb(0, 0, 0); fill-opacity: 1;"></path>
        </g>
      </g>
    </g>
    <g>
      <g style="clip-path: url(#clippath0);">
        <g transform="translate(590.4487 106.0645)">
          <path d="M 0 0 C -0.686 -0.074 -1.184 -0.689 -1.11 -1.376 C -0.917 -3.186 -1.246 -5.01 -1.966 -6.705 C -1.998 -6.102 -2.44 -5.589 -3.06 -5.524 C -3.738 -5.45 -4.361 -5.95 -4.434 -6.636 C -4.523 -7.478 -5.207 -8.277 -6.025 -8.494 C -6.287 -8.564 -6.395 -8.533 -6.407 -8.529 C -6.473 -8.507 -6.614 -8.344 -6.658 -8.097 C -6.727 -7.712 -6.617 -7.231 -6.499 -6.811 C -6.192 -5.71 -5.736 -4.656 -5.143 -3.677 C -4.877 -3.238 -4.907 -2.68 -5.218 -2.271 C -5.53 -1.863 -6.058 -1.687 -6.553 -1.827 C -7.069 -1.973 -7.331 -1.997 -7.455 -1.997 C -7.518 -1.997 -7.55 -1.994 -7.549 -1.991 C -7.58 -1.939 -7.606 -1.734 -7.524 -1.495 C -7.303 -0.845 -6.592 -0.335 -5.905 -0.335 L -5.904 -0.335 L -5.904 -0.335 C -5.214 -0.335 -4.654 0.224 -4.654 0.914 C -4.653 1.604 -5.213 2.164 -5.903 2.165 L -5.905 2.165 C -7.681 2.165 -9.32 0.991 -9.892 -0.69 C -10.306 -1.909 -10.029 -3.16 -9.185 -3.878 C -8.904 -4.117 -8.6 -4.271 -8.291 -4.365 C -8.533 -4.942 -8.739 -5.535 -8.908 -6.139 C -9.101 -6.831 -9.277 -7.657 -9.119 -8.539 C -8.913 -9.678 -8.17 -10.585 -7.18 -10.906 C -6.909 -10.995 -6.621 -11.039 -6.318 -11.039 C -6.02 -11.039 -5.708 -10.996 -5.384 -10.91 C -5.072 -10.827 -4.778 -10.699 -4.494 -10.553 C -6.397 -12.579 -8.941 -14.061 -11.755 -14.523 C -12.814 -14.696 -13.847 -14.719 -14.846 -14.63 C -14.521 -13.955 -14.059 -12.607 -14.595 -11.116 C -15.166 -9.529 -16.663 -8.35 -19.046 -7.61 C -19.704 -7.406 -20.405 -7.773 -20.61 -8.433 C -20.815 -9.092 -20.446 -9.793 -19.787 -9.998 C -18.227 -10.481 -17.248 -11.155 -16.954 -11.946 C -16.638 -12.793 -17.163 -13.672 -17.185 -13.71 C -17.271 -13.843 -17.32 -13.987 -17.351 -14.132 C -21.246 -12.876 -24.196 -9.569 -24.928 -5.111 C -25.435 -2.014 -24.746 1.054 -22.986 3.526 C -21.225 6.002 -18.557 7.644 -15.475 8.149 C -14.867 8.249 -14.236 8.297 -13.589 8.297 C -8.198 8.297 -1.754 4.946 0.022 0.002 C 0.015 0.001 0.007 0 0 0 M 2.765 -0.517 C 1.136 7.077 -8.768 11.786 -15.879 10.616 C -19.624 10.001 -22.872 7.999 -25.023 4.976 C -26.93 2.297 -27.8 -0.945 -27.539 -4.267 C -40.466 -7.072 -39.818 -26.581 -39.38 -39.607 L -39.371 -39.883 C -42.744 -44.342 -45.113 -49.769 -47.399 -55.03 C -49.207 -59.192 -51.077 -63.497 -53.395 -67.14 C -53.766 -67.722 -53.594 -68.495 -53.011 -68.865 C -52.803 -68.998 -52.571 -69.061 -52.341 -69.061 C -51.928 -69.061 -51.524 -68.856 -51.286 -68.481 C -48.862 -64.673 -46.953 -60.277 -45.106 -56.027 C -43.054 -51.303 -40.933 -46.442 -38.114 -42.402 C -35.296 -46.442 -33.175 -51.303 -31.122 -56.027 C -29.276 -60.277 -27.366 -64.673 -24.943 -68.481 C -24.705 -68.856 -24.3 -69.061 -23.887 -69.061 C -23.658 -69.061 -23.425 -68.998 -23.217 -68.865 C -22.635 -68.495 -22.463 -67.722 -22.833 -67.14 C -25.151 -63.497 -27.021 -59.192 -28.83 -55.03 C -31.118 -49.763 -33.49 -44.327 -36.87 -39.865 L -36.882 -39.523 C -37.217 -29.538 -37.642 -16.769 -32.754 -10.406 C -32.014 -16.929 -30.329 -33.991 -32.193 -39.903 C -32.401 -40.562 -32.035 -41.264 -31.377 -41.472 C -31.252 -41.511 -31.125 -41.53 -31 -41.53 C -30.47 -41.53 -29.977 -41.188 -29.809 -40.655 C -27.537 -33.447 -29.97 -12.442 -30.491 -8.224 C -30.146 -7.982 -29.785 -7.762 -29.404 -7.566 C -28.824 -12.397 -26.634 -32.111 -28.668 -38.563 C -28.876 -39.221 -28.51 -39.923 -27.852 -40.131 C -27.727 -40.17 -27.6 -40.189 -27.476 -40.189 C -26.945 -40.189 -26.452 -39.848 -26.284 -39.314 C -24.122 -32.457 -26.221 -13.105 -26.879 -7.605 C -25.03 -13.36 -19.775 -17.185 -13.727 -17.185 C -12.946 -17.185 -12.152 -17.121 -11.351 -16.99 C -3.987 -15.782 1.672 -9.051 1.44 -2.025 C 1.561 -2.037 1.683 -2.028 1.805 -2.001 C 2.48 -1.856 2.91 -1.192 2.765 -0.517" style="fill: rgb(0, 0, 0); fill-opacity: 1;"></path>
        </g>
      </g>
      <g style="clip-path: url(#clippath0);">
        <g transform="translate(577.8394 102.104)">
          <path d="M 0 0 L -1.608 -0.264 C -2.29 -0.376 -2.751 -1.018 -2.639 -1.7 C -2.539 -2.312 -2.009 -2.747 -1.407 -2.747 C -1.34 -2.747 -1.272 -2.742 -1.203 -2.73 L 0.404 -2.467 C 1.085 -2.355 1.547 -1.712 1.435 -1.031 C 1.324 -0.351 0.683 0.112 0 0" style="fill: rgb(0, 0, 0); fill-opacity: 1;"></path>
        </g>
      </g>
    </g>
    <g>
      <g style="clip-path: url(#clippath0);">
        <g transform="translate(335.4814 79.2134)">
          <path d="M 0 0 C -0.07 0.059 -7.015 5.927 -10.297 9.002 C -13.608 12.105 -16.851 15.36 -19.934 18.676 C -20.01 18.757 -20.104 18.806 -20.194 18.862 C -20.12 19.922 -20.045 20.993 -19.967 22.072 C -13.012 22.749 -7.34 29.347 -7.34 37.093 C -7.34 44.773 -13.452 54.348 -21.041 54.717 C -21.735 54.757 -22.316 54.219 -22.35 53.53 C -22.384 52.84 -21.852 52.254 -21.163 52.22 C -15.171 51.928 -9.84 43.518 -9.84 37.093 C -9.84 30.27 -15.015 24.505 -21.141 24.505 C -27.351 24.505 -32.798 30.387 -32.798 37.093 C -32.798 43.708 -26.965 47.498 -21.204 47.822 C -20.515 47.861 -19.987 48.451 -20.026 49.141 C -20.065 49.83 -20.646 50.355 -21.344 50.318 C -29.299 49.871 -35.298 44.185 -35.298 37.093 C -35.298 29.393 -29.55 22.822 -22.472 22.079 C -22.553 20.952 -22.633 19.831 -22.71 18.725 C -22.731 18.705 -22.758 18.697 -22.778 18.676 C -28.957 12.03 -35.658 5.751 -42.695 0.014 C -43.23 -0.422 -43.311 -1.21 -42.874 -1.745 C -42.627 -2.048 -42.267 -2.205 -41.904 -2.205 C -41.627 -2.205 -41.347 -2.113 -41.115 -1.924 C -34.741 3.273 -28.663 8.927 -22.968 14.874 C -23.67 4.184 -24.166 -5.653 -24.497 -15.521 C -24.498 -15.545 -24.486 -15.566 -24.486 -15.589 C -27.002 -21.155 -30.268 -27.481 -31.342 -28.453 C -32.767 -28.402 -39.146 -26.855 -44.769 -25.313 C -45.435 -25.131 -46.122 -25.522 -46.305 -26.188 C -46.487 -26.854 -46.096 -27.542 -45.43 -27.724 C -35.595 -30.421 -32.349 -30.927 -31.142 -30.927 C -30.681 -30.927 -30.517 -30.853 -30.397 -30.799 C -28.869 -30.109 -26.089 -24.854 -23.868 -20.199 C -22.342 -30.252 -20.248 -43.47 -20.224 -43.622 C -20.127 -44.237 -19.595 -44.676 -18.991 -44.676 C -18.926 -44.676 -18.86 -44.671 -18.794 -44.66 C -18.112 -44.552 -17.647 -43.912 -17.755 -43.23 C -17.783 -43.057 -20.521 -25.768 -22.015 -15.711 C -22.016 -15.706 -22.019 -15.703 -22.02 -15.698 C -22.016 -15.666 -21.999 -15.638 -21.998 -15.605 C -21.66 -5.507 -21.148 4.56 -20.418 15.549 C -17.701 12.686 -14.883 9.873 -12.006 7.178 C -8.678 4.059 -1.684 -1.851 -1.613 -1.91 C -1.378 -2.108 -1.092 -2.205 -0.807 -2.205 C -0.452 -2.205 -0.099 -2.054 0.148 -1.762 C 0.594 -1.234 0.527 -0.445 0 0" style="fill: rgb(0, 0, 0); fill-opacity: 1;"></path>
        </g>
      </g>
      <g style="clip-path: url(#clippath0);">
        <g transform="translate(306.749 116.1318)">
          <path d="M 0 0 L 0 -1.629 C 0 -2.32 0.56 -2.879 1.25 -2.879 C 1.941 -2.879 2.5 -2.32 2.5 -1.629 L 2.5 0 C 2.5 0.691 1.941 1.25 1.25 1.25 C 0.56 1.25 0 0.691 0 0" style="fill: rgb(0, 0, 0); fill-opacity: 1;"></path>
        </g>
      </g>
      <g style="clip-path: url(#clippath0);">
        <g transform="translate(318.3994 116.1318)">
          <path d="M 0 0 L 0 -1.629 C 0 -2.32 0.56 -2.879 1.25 -2.879 C 1.94 -2.879 2.5 -2.32 2.5 -1.629 L 2.5 0 C 2.5 0.691 1.94 1.25 1.25 1.25 C 0.56 1.25 0 0.691 0 0" style="fill: rgb(0, 0, 0); fill-opacity: 1;"></path>
        </g>
      </g>
      <g style="clip-path: url(#clippath0);">
        <g transform="translate(315.6484 112.5537)">
          <path d="M 0 0 C -0.505 -0.461 -1.223 -0.717 -1.901 -0.693 C -2.585 -0.666 -3.272 -0.35 -3.739 0.152 C -4.209 0.658 -5 0.686 -5.505 0.216 C -6.011 -0.254 -6.04 -1.045 -5.57 -1.55 C -4.651 -2.538 -3.351 -3.136 -2.002 -3.191 C -1.934 -3.194 -1.867 -3.195 -1.799 -3.195 C -0.52 -3.195 0.741 -2.71 1.687 -1.846 C 2.196 -1.38 2.232 -0.589 1.766 -0.08 C 1.301 0.429 0.511 0.466 0 0" style="fill: rgb(0, 0, 0); fill-opacity: 1;"></path>
        </g>
      </g>
      <g style="clip-path: url(#clippath0);">
        <g transform="translate(315.5884 123.5044)">
          <path d="M 0 0 C -0.452 0.241 -1.008 0.181 -1.399 -0.153 C -2.268 -0.896 -3.235 -1.517 -4.273 -1.999 C -4.668 -2.183 -5.122 -2.355 -5.515 -2.363 C -5.768 -2.36 -5.951 -2.248 -5.982 -2.186 C -6.008 -2.138 -6.03 -2.009 -6.01 -1.803 C -5.928 -0.961 -5.251 -0.156 -4.434 0.068 C -3.768 0.25 -3.376 0.938 -3.559 1.604 C -3.741 2.27 -4.426 2.661 -5.095 2.479 C -6.916 1.979 -8.316 0.318 -8.498 -1.562 C -8.564 -2.233 -8.464 -2.829 -8.204 -3.334 C -7.725 -4.26 -6.709 -4.846 -5.552 -4.863 C -5.534 -4.863 -5.515 -4.864 -5.496 -4.864 C -4.624 -4.864 -3.857 -4.562 -3.22 -4.267 C -2.65 -4.002 -2.099 -3.703 -1.568 -3.371 C -1.426 -3.66 -1.225 -3.936 -0.943 -4.175 C -0.097 -4.891 1.182 -4.961 2.316 -4.355 C 3.884 -3.519 4.777 -1.711 4.488 0.042 C 4.376 0.724 3.732 1.186 3.052 1.073 C 2.371 0.961 1.909 0.318 2.021 -0.364 C 2.133 -1.042 1.746 -1.826 1.139 -2.15 C 0.917 -2.269 0.711 -2.281 0.68 -2.274 C 0.651 -2.233 0.564 -2.039 0.655 -1.246 C 0.713 -0.736 0.454 -0.241 0 0" style="fill: rgb(0, 0, 0); fill-opacity: 1;"></path>
        </g>
      </g>
    </g>
    <g>
      <g style="clip-path: url(#clippath0);">
        <g transform="translate(428.0288 115.3066)">
          <path d="M 0 0 C 0 6.265 4.879 11.446 11.107 11.797 C 11.796 11.835 12.323 12.426 12.285 13.115 C 12.282 13.161 12.277 13.206 12.27 13.25 C 17.971 12.251 23.248 6.049 23.248 0 C 23.248 -6.274 17.847 -11.577 11.414 -11.678 C 11.381 -11.672 11.354 -11.654 11.32 -11.651 C 11.243 -11.646 11.173 -11.672 11.098 -11.68 C 4.865 -11.608 0 -6.507 0 0 M 32.669 -22.267 C 32.299 -21.684 31.525 -21.513 30.944 -21.883 C 25.808 -25.147 19.915 -28.6 18.086 -29.264 C 16.431 -27.341 15.314 -24.994 14.137 -22.519 C 13.501 -21.181 12.842 -19.81 12.089 -18.493 C 12.186 -17.059 12.29 -15.599 12.395 -14.129 C 19.856 -13.546 25.748 -7.438 25.748 0 C 25.748 7.797 18.7 15.512 11.245 15.875 C 10.547 15.907 9.969 15.377 9.935 14.688 C 9.927 14.519 9.953 14.356 10.006 14.207 C 2.919 13.328 -2.5 7.265 -2.5 0 C -2.5 -7.488 2.843 -13.444 9.89 -14.119 C 9.813 -15.201 9.736 -16.28 9.663 -17.342 C 5.921 -19.886 2.217 -22.59 -1.35 -25.385 C -4.939 -28.199 -11.846 -34.211 -11.915 -34.272 C -12.436 -34.725 -12.49 -35.515 -12.037 -36.035 C -11.79 -36.319 -11.443 -36.464 -11.094 -36.464 C -10.803 -36.464 -10.51 -36.363 -10.273 -36.157 C -10.205 -36.097 -3.347 -30.127 0.192 -27.353 C 3.199 -24.996 6.306 -22.712 9.448 -20.529 C 8.72 -31.498 8.211 -41.547 7.874 -51.614 C 7.873 -51.638 7.884 -51.659 7.885 -51.682 C 5.368 -57.248 2.102 -63.575 1.028 -64.546 C -0.397 -64.495 -6.777 -62.948 -12.398 -61.406 C -13.066 -61.224 -13.752 -61.615 -13.935 -62.281 C -14.117 -62.947 -13.725 -63.635 -13.06 -63.817 C -3.224 -66.514 0.022 -67.021 1.229 -67.021 C 1.69 -67.021 1.853 -66.946 1.973 -66.893 C 3.501 -66.202 6.281 -60.947 8.503 -56.292 C 10.029 -66.345 12.122 -79.563 12.146 -79.715 C 12.243 -80.33 12.774 -80.769 13.379 -80.769 C 13.444 -80.769 13.51 -80.764 13.576 -80.753 C 14.258 -80.646 14.723 -80.005 14.615 -79.323 C 14.587 -79.15 11.85 -61.861 10.355 -51.804 C 10.355 -51.8 10.352 -51.796 10.351 -51.791 C 10.354 -51.759 10.371 -51.731 10.373 -51.698 C 10.681 -42.473 11.133 -33.276 11.767 -23.357 C 11.804 -23.435 11.842 -23.514 11.879 -23.592 C 13.175 -26.317 14.516 -29.136 16.664 -31.42 C 16.878 -31.649 17.09 -31.874 17.604 -31.874 C 18.906 -31.874 22.146 -30.437 32.285 -23.992 C 32.868 -23.622 33.04 -22.85 32.669 -22.267" style="fill: rgb(0, 0, 0); fill-opacity: 1;"></path>
        </g>
      </g>
      <g style="clip-path: url(#clippath0);">
        <g transform="translate(436.9165 116.3818)">
          <path d="M 0 0 C -0.69 0 -1.25 -0.559 -1.25 -1.25 L -1.25 -2.879 C -1.25 -3.57 -0.69 -4.129 0 -4.129 C 0.69 -4.129 1.25 -3.57 1.25 -2.879 L 1.25 -1.25 C 1.25 -0.559 0.69 0 0 0" style="fill: rgb(0, 0, 0); fill-opacity: 1;"></path>
        </g>
      </g>
      <g style="clip-path: url(#clippath0);">
        <g transform="translate(447.3169 113.5024)">
          <path d="M 0 0 C 0 -0.69 0.56 -1.25 1.25 -1.25 C 1.94 -1.25 2.5 -0.69 2.5 0 L 2.5 1.629 C 2.5 2.32 1.94 2.879 1.25 2.879 C 0.56 2.879 0 2.32 0 1.629 Z" style="fill: rgb(0, 0, 0); fill-opacity: 1;"></path>
        </g>
      </g>
      <g style="clip-path: url(#clippath0);">
        <g transform="translate(442.5645 108.3623)">
          <path d="M 0 0 C 0.067 -0.003 0.135 -0.004 0.203 -0.004 C 1.482 -0.004 2.742 0.482 3.688 1.346 C 4.197 1.811 4.233 2.602 3.767 3.112 C 3.303 3.62 2.512 3.657 2.001 3.191 C 1.496 2.729 0.769 2.476 0.101 2.498 C -0.584 2.526 -1.271 2.842 -1.737 3.343 C -2.207 3.85 -2.998 3.877 -3.504 3.408 C -4.009 2.938 -4.038 2.146 -3.568 1.641 C -2.65 0.653 -1.349 0.055 0 0" style="fill: rgb(0, 0, 0); fill-opacity: 1;"></path>
        </g>
      </g>
      <g style="clip-path: url(#clippath0);">
        <g transform="translate(437.4736 118.6406)">
          <path d="M 0 0 C 0.872 0 1.639 0.301 2.276 0.597 C 2.846 0.862 3.397 1.161 3.928 1.493 C 4.07 1.204 4.271 0.928 4.553 0.689 C 5.398 -0.027 6.677 -0.097 7.812 0.508 C 9.38 1.345 10.273 3.153 9.984 4.906 C 9.873 5.587 9.232 6.05 8.548 5.936 C 7.867 5.825 7.405 5.182 7.518 4.5 C 7.629 3.822 7.242 3.038 6.635 2.714 C 6.413 2.595 6.208 2.583 6.176 2.59 C 6.147 2.63 6.06 2.825 6.151 3.618 C 6.21 4.128 5.95 4.623 5.496 4.864 C 5.043 5.104 4.488 5.044 4.097 4.71 C 3.228 3.967 2.261 3.347 1.223 2.865 C 0.829 2.681 0.379 2.509 -0.019 2.5 C -0.272 2.504 -0.455 2.616 -0.486 2.678 C -0.512 2.726 -0.534 2.855 -0.514 3.061 C -0.432 3.903 0.246 4.707 1.062 4.932 C 1.728 5.114 2.12 5.802 1.937 6.468 C 1.755 7.133 1.069 7.524 0.401 7.343 C -1.42 6.843 -2.819 5.182 -3.002 3.302 C -3.067 2.631 -2.968 2.035 -2.707 1.53 C -2.229 0.604 -1.213 0.018 -0.056 0 C -0.038 0 -0.018 0 0 0" style="fill: rgb(0, 0, 0); fill-opacity: 1;"></path>
        </g>
      </g>
    </g>
    <g>
      <g style="clip-path: url(#clippath0);">
        <g transform="translate(677.8936 260.4751)">
          <path d="M 0 0 C 0 6.385 5.098 12.066 11.133 12.405 C 11.77 12.441 12.269 12.949 12.31 13.571 C 18.057 12.549 23.75 5.974 23.75 0 C 23.75 -6.479 17.811 -12.38 11.29 -12.38 C 5.064 -12.38 0 -6.827 0 0 M 11.124 -20.863 C 17.584 -25.445 25.035 -30.46 26.701 -30.46 C 28.565 -30.46 34.058 -25.571 38.338 -21.47 C 38.837 -20.992 38.854 -20.201 38.376 -19.703 C 37.898 -19.203 37.107 -19.187 36.609 -19.665 C 32.773 -23.341 27.984 -27.462 26.695 -27.938 C 25.133 -27.438 17.744 -22.523 11.29 -17.911 C 11.348 -16.974 11.411 -16.017 11.483 -15.02 C 11.487 -14.968 11.467 -14.922 11.464 -14.871 C 19.225 -14.766 26.25 -7.73 26.25 0 C 26.25 7.661 18.715 15.834 11.32 16.195 C 10.618 16.224 10.044 15.697 10.011 15.007 C 10.007 14.94 10.01 14.873 10.017 14.808 C 3.138 13.876 -2.5 7.322 -2.5 0 C -2.5 -7.376 2.504 -13.499 9.039 -14.664 C 9.025 -14.724 8.995 -14.776 8.99 -14.838 C 8.911 -15.925 8.844 -16.964 8.782 -17.98 C 2.351 -22.572 -4.971 -27.441 -6.526 -27.938 C -7.816 -27.462 -12.604 -23.341 -16.441 -19.665 C -16.938 -19.187 -17.73 -19.204 -18.208 -19.703 C -18.686 -20.201 -18.669 -20.992 -18.17 -21.47 C -13.89 -25.571 -8.397 -30.46 -6.532 -30.46 C -4.904 -30.46 2.251 -25.668 8.605 -21.173 C 8.262 -28.196 8.31 -33.082 8.357 -35.116 C 4.295 -34.856 -7.572 -34.366 -13.607 -37.005 C -20.293 -39.929 -19.547 -51.292 -19.302 -55.025 C -19.276 -55.409 -19.256 -55.692 -19.256 -55.847 C -19.256 -56.538 -18.697 -57.097 -18.006 -57.097 C -17.316 -57.097 -16.756 -56.538 -16.756 -55.847 C -16.756 -55.661 -16.777 -55.322 -16.807 -54.861 C -17.389 -46.006 -15.975 -40.77 -12.605 -39.295 C -5.99 -36.403 9.371 -37.694 9.526 -37.707 C 9.565 -37.711 9.599 -37.695 9.637 -37.696 C 9.675 -37.695 9.71 -37.711 9.749 -37.706 C 9.895 -37.693 24.348 -36.401 30.963 -39.296 C 35.879 -41.445 35.411 -49.999 35.186 -54.11 C 35.147 -54.825 35.115 -55.42 35.115 -55.847 C 35.115 -56.538 35.675 -57.097 36.365 -57.097 C 37.056 -57.097 37.615 -56.538 37.615 -55.847 C 37.615 -55.453 37.646 -54.906 37.682 -54.246 C 37.938 -49.573 38.47 -39.85 31.965 -37.005 C 25.942 -34.37 14.727 -34.851 10.857 -35.113 C 10.81 -33.129 10.757 -28.116 11.124 -20.863" style="fill: rgb(0, 0, 0); fill-opacity: 1;"></path>
        </g>
      </g>
      <g style="clip-path: url(#clippath0);">
        <g transform="translate(686.0898 263.0039)">
          <path d="M 0 0 C 0.019 0 0.038 -0.001 0.056 -0.001 C 0.928 -0.001 1.695 0.301 2.333 0.597 C 2.902 0.861 3.453 1.16 3.984 1.493 C 4.126 1.203 4.328 0.927 4.609 0.689 C 5.455 -0.027 6.734 -0.098 7.869 0.508 C 9.436 1.345 10.329 3.153 10.041 4.906 C 9.928 5.587 9.287 6.049 8.604 5.936 C 7.923 5.824 7.461 5.181 7.574 4.499 C 7.685 3.822 7.298 3.037 6.691 2.713 C 6.469 2.594 6.264 2.583 6.232 2.589 C 6.203 2.63 6.116 2.824 6.207 3.617 C 6.266 4.127 6.006 4.622 5.552 4.863 C 5.099 5.104 4.544 5.044 4.153 4.71 C 3.284 3.967 2.317 3.346 1.279 2.864 C 0.884 2.681 0.41 2.499 0.037 2.5 C -0.215 2.503 -0.398 2.615 -0.431 2.678 C -0.436 2.689 -0.484 2.79 -0.458 3.06 C -0.375 3.902 0.302 4.707 1.119 4.931 C 1.785 5.114 2.176 5.802 1.994 6.468 C 1.811 7.133 1.127 7.523 0.457 7.342 C -1.364 6.842 -2.764 5.18 -2.946 3.301 C -3.011 2.63 -2.912 2.034 -2.652 1.53 C -2.173 0.603 -1.157 0.018 0 0" style="fill: rgb(0, 0, 0); fill-opacity: 1;"></path>
        </g>
      </g>
      <g style="clip-path: url(#clippath0);">
        <g transform="translate(685.6245 257.1836)">
          <path d="M 0 0 L 0 1.969 C 0 2.66 -0.56 3.219 -1.25 3.219 C -1.94 3.219 -2.5 2.66 -2.5 1.969 L -2.5 0 C -2.5 -0.69 -1.94 -1.25 -1.25 -1.25 C -0.56 -1.25 0 -0.69 0 0" style="fill: rgb(0, 0, 0); fill-opacity: 1;"></path>
        </g>
      </g>
      <g style="clip-path: url(#clippath0);">
        <g transform="translate(693.6289 260.4028)">
          <path d="M 0 0 C -0.69 0 -1.25 -0.56 -1.25 -1.25 L -1.25 -3.219 C -1.25 -3.91 -0.69 -4.469 0 -4.469 C 0.69 -4.469 1.25 -3.91 1.25 -3.219 L 1.25 -1.25 C 1.25 -0.56 0.69 0 0 0" style="fill: rgb(0, 0, 0); fill-opacity: 1;"></path>
        </g>
      </g>
      <g style="clip-path: url(#clippath0);">
        <g transform="translate(692.3354 255.2124)">
          <path d="M 0 0 C -0.5 0.478 -1.291 0.459 -1.767 -0.041 C -2.452 -0.757 -3.093 -1.094 -3.685 -1.068 C -4.539 -1.018 -5.176 -0.195 -5.2 -0.165 C -5.606 0.388 -6.382 0.512 -6.939 0.11 C -7.498 -0.294 -7.625 -1.075 -7.221 -1.635 C -7.089 -1.818 -5.876 -3.423 -3.87 -3.562 C -3.777 -3.568 -3.685 -3.571 -3.594 -3.571 C -2.325 -3.571 -1.104 -2.965 0.041 -1.767 C 0.518 -1.268 0.5 -0.477 0 0" style="fill: rgb(0, 0, 0); fill-opacity: 1;"></path>
        </g>
      </g>
    </g>
    <g>
      <g style="clip-path: url(#clippath0);">
        <g transform="translate(711.6982 49.2412)">
          <path d="M 0 0 C -3.016 -0.624 -6.371 0.091 -9.207 1.967 C -12.041 3.842 -14.027 6.653 -14.657 9.681 C -15.275 12.658 -14.565 15.716 -12.656 18.292 C -10.799 20.798 -7.948 22.607 -4.833 23.254 C -4.009 23.425 -3.179 23.507 -2.355 23.507 C 3.07 23.507 8.224 19.947 9.579 14.878 C 9.744 14.261 10.342 13.878 10.959 13.962 C 11.129 8.128 5.849 1.216 0 0 M -11.738 -10.267 C -19.823 -7.181 -35.57 -1.907 -41.483 0.058 C -37.95 2.029 -30.211 6.008 -22.034 8.024 Z M 13.327 15.466 C 13.219 16.148 12.58 16.612 11.898 16.506 C 11.831 16.496 11.766 16.48 11.704 16.46 C 9.392 23.006 1.827 27.197 -5.342 25.701 C -9.049 24.931 -12.447 22.773 -14.665 19.78 C -16.529 17.265 -17.44 14.361 -17.352 11.421 C -17.413 11.422 -17.469 11.441 -17.531 11.433 C -18.402 11.317 -19.274 11.171 -20.143 11.003 C -20.204 18.67 -20.002 26.891 -19.538 28.394 C -18.41 29.179 -12.289 30.745 -7.078 31.787 C -6.401 31.922 -5.962 32.58 -6.098 33.257 C -6.233 33.935 -6.893 34.375 -7.568 34.238 C -13.381 33.077 -20.535 31.372 -21.602 29.843 C -22.602 28.411 -22.721 18.625 -22.639 10.454 C -34.036 7.659 -44.315 1.326 -44.809 1.019 C -44.888 0.969 -44.939 0.898 -45.003 0.835 C -47.367 0.692 -54.468 0.063 -60.444 -2.551 C -62.146 -3.295 -62.451 -4.354 -62.408 -5.11 C -62.202 -8.699 -51.111 -12.627 -44.519 -14.648 C -44.396 -14.686 -44.273 -14.704 -44.152 -14.704 C -43.617 -14.704 -43.122 -14.358 -42.957 -13.82 C -42.755 -13.16 -43.126 -12.461 -43.786 -12.259 C -51.847 -9.786 -59.032 -6.559 -59.857 -5.067 C -59.781 -5.012 -59.651 -4.933 -59.442 -4.841 C -53.323 -2.165 -45.636 -1.695 -44.326 -1.633 C -41.785 -2.473 -15.954 -11.033 -9.406 -13.897 C -9.366 -13.915 -9.325 -13.923 -9.284 -13.936 C -9.255 -13.946 -9.228 -13.957 -9.198 -13.964 C -9.101 -13.988 -9.003 -14.003 -8.905 -14.003 C -8.899 -14.003 -8.894 -14 -8.888 -14 C -8.782 -13.999 -8.676 -13.984 -8.572 -13.955 C -8.532 -13.944 -8.496 -13.924 -8.458 -13.909 C -8.402 -13.887 -8.345 -13.872 -8.292 -13.842 C -8.283 -13.837 -8.278 -13.828 -8.269 -13.823 C -8.143 -13.748 -8.031 -13.652 -7.937 -13.536 C -7.913 -13.506 -7.898 -13.472 -7.877 -13.44 C -7.836 -13.379 -7.79 -13.323 -7.76 -13.253 C -7.748 -13.226 -7.751 -13.198 -7.742 -13.17 C -7.712 -13.088 -7.699 -13.005 -7.687 -12.919 C -7.677 -12.841 -7.665 -12.767 -7.669 -12.691 C -7.673 -12.613 -7.692 -12.54 -7.71 -12.463 C -7.731 -12.379 -7.752 -12.299 -7.789 -12.221 C -7.801 -12.194 -7.801 -12.165 -7.815 -12.139 L -19.48 8.583 C -18.72 8.728 -17.959 8.853 -17.201 8.954 C -17.149 8.961 -17.108 8.99 -17.059 9.003 C -16.26 5.401 -13.914 2.083 -10.586 -0.118 C -8.012 -1.821 -5.06 -2.721 -2.183 -2.72 C -1.273 -2.72 -0.371 -2.63 0.509 -2.447 C 8.01 -0.888 14.479 8.152 13.327 15.466" style="fill: rgb(0, 0, 0); fill-opacity: 1;"></path>
        </g>
      </g>
      <g style="clip-path: url(#clippath0);">
        <g transform="translate(716.9565 58.4854)">
          <path d="M 0 0 C -0.641 -0.248 -1.489 -0.028 -1.929 0.5 C -2.091 0.694 -2.141 0.895 -2.144 0.925 C -2.11 0.962 -1.937 1.086 -1.143 1.158 C -0.631 1.204 -0.2 1.559 -0.056 2.052 C 0.088 2.545 -0.084 3.077 -0.491 3.391 C -1.395 4.091 -2.2 4.912 -2.883 5.829 C -3.142 6.178 -3.418 6.587 -3.492 6.972 C -3.54 7.219 -3.468 7.421 -3.412 7.466 C -3.403 7.474 -3.314 7.541 -3.045 7.57 C -2.205 7.666 -1.277 7.162 -0.892 6.408 C -0.577 5.793 0.175 5.549 0.791 5.864 C 1.405 6.179 1.648 6.932 1.334 7.546 C 0.475 9.228 -1.433 10.258 -3.316 10.056 C -3.987 9.982 -4.55 9.763 -4.989 9.407 C -5.799 8.75 -6.166 7.636 -5.947 6.5 C -5.778 5.62 -5.317 4.913 -4.888 4.336 C -4.514 3.833 -4.109 3.354 -3.675 2.903 C -3.93 2.704 -4.158 2.452 -4.334 2.127 C -4.864 1.155 -4.673 -0.113 -3.848 -1.102 C -3.04 -2.07 -1.82 -2.606 -0.587 -2.606 C -0.085 -2.606 0.419 -2.518 0.898 -2.333 C 1.543 -2.085 1.864 -1.361 1.616 -0.717 C 1.368 -0.074 0.646 0.249 0 0" style="fill: rgb(0, 0, 0); fill-opacity: 1;"></path>
        </g>
      </g>
      <g style="clip-path: url(#clippath0);">
        <g transform="translate(708.1133 66.1353)">
          <path d="M 0 0 C -0.14 0.676 -0.801 1.108 -1.478 0.969 L -3.406 0.568 C -4.082 0.428 -4.516 -0.234 -4.375 -0.91 C -4.253 -1.5 -3.732 -1.906 -3.153 -1.906 C -3.068 -1.906 -2.983 -1.897 -2.897 -1.879 L -0.969 -1.478 C -0.294 -1.338 0.141 -0.676 0 0" style="fill: rgb(0, 0, 0); fill-opacity: 1;"></path>
        </g>
      </g>
      <g style="clip-path: url(#clippath0);">
        <g transform="translate(708.5186 58.0439)">
          <path d="M 0 0 L -1.928 -0.401 C -2.604 -0.541 -3.038 -1.203 -2.898 -1.879 C -2.775 -2.469 -2.254 -2.875 -1.675 -2.875 C -1.59 -2.875 -1.505 -2.866 -1.419 -2.849 L 0.509 -2.448 C 1.184 -2.308 1.619 -1.646 1.478 -0.97 C 1.338 -0.294 0.678 0.136 0 0" style="fill: rgb(0, 0, 0); fill-opacity: 1;"></path>
        </g>
      </g>
      <g style="clip-path: url(#clippath0);">
        <g transform="translate(704.2524 59.0063)">
          <path d="M 0 0 C -0.841 0.525 -1.311 1.086 -1.396 1.669 C -1.52 2.514 -0.846 3.305 -0.819 3.335 C -0.361 3.845 -0.398 4.63 -0.905 5.094 C -1.414 5.561 -2.206 5.525 -2.671 5.016 C -2.823 4.85 -4.148 3.335 -3.875 1.342 C -3.689 -0.016 -2.83 -1.182 -1.322 -2.121 C -1.117 -2.249 -0.888 -2.311 -0.662 -2.311 C -0.245 -2.311 0.163 -2.102 0.4 -1.722 C 0.765 -1.136 0.586 -0.365 0 0" style="fill: rgb(0, 0, 0); fill-opacity: 1;"></path>
        </g>
      </g>
    </g>
  </g>
</svg>