<svg viewBox="0 0 200 300" xmlns="http://www.w3.org/2000/svg">
  <defs></defs>
  <g style="" transform="matrix(1.219132, 0, 0, 1.172024, -2.107423, -0.94856)">
    <path d="M 52.158 118.87 C 41.45 118.87 29.265 110.636 19.664 94.756 C 11.909 82.404 6.74 67.7 4.893 52.996 C 3.047 37.704 5.263 24.764 10.802 15.942 C 16.34 7.119 24.464 3.59 34.065 6.531 C 43.296 9.472 52.528 17.706 60.282 30.057 C 68.037 42.409 73.206 57.113 75.052 71.817 C 76.899 87.109 74.683 100.049 69.144 108.872 C 64.713 115.929 58.805 118.87 52.158 118.87 Z M 27.418 11.824 C 21.51 11.824 16.71 14.765 13.017 20.059 C 3.416 35.351 7.109 67.112 21.879 90.638 C 36.65 114.165 56.22 120.047 66.19 104.754 C 70.991 97.108 72.468 85.933 70.991 72.993 C 69.514 59.466 64.713 45.938 57.328 34.175 C 49.943 22.411 41.45 14.765 32.957 12.413 C 31.111 11.824 29.265 11.824 27.418 11.824 Z" style=""></path>
    <rect x="79.616" y="72.475" transform="matrix(0.53031, -0.847804, 0.591927, 0.939379, -79.685089, 52.227356)" width="2.457" height="68.056" style=""></rect>
    <polygon points="54.005 117.106 5.632 39.468 6.74 37.115 55.482 114.753" style=""></polygon>
    <polygon points="61.759 113.577 7.109 28.881 8.586 27.117 63.236 111.224" style=""></polygon>
    <rect x="97.722" y="43.343" transform="matrix(0.531712, -0.846926, 0.590371, 0.940359, -66.372986, 60.941006)" width="2.455" height="94.204" style=""></rect>
    <rect x="103.99" y="39.406" transform="matrix(0.533655, -0.845703, 0.588214, 0.941707, -61.718864, 63.641846)" width="2.453" height="91.652" style=""></rect>
    <rect x="110.422" y="37.888" transform="matrix(0.52487, -0.851182, 0.597969, 0.935506, -56.925896, 68.270134)" width="2.465" height="81.939" style=""></rect>
    <rect x="116.218" y="42.075" transform="matrix(0.534194, -0.845362, 0.587615, 0.942079, -52.423538, 69.812294)" width="2.452" height="63.777" style=""></rect>
    <rect x="48.359" y="62.068" transform="matrix(0.523312, -0.852141, 0.599701, 0.934376, -57.0555, 25.937565)" width="41.447" height="2.201" style=""></rect>
    <rect x="47.761" y="67.228" transform="matrix(0.508626, -0.860988, 0.616026, 0.92329, -59.072754, 35.594631)" width="54.726" height="2.183" style=""></rect>
    <rect x="49.18" y="73.59" transform="matrix(0.546479, -0.837473, 0.573989, 0.950265, -60.500671, 36.37278)" width="61.84" height="2.23" style=""></rect>
    <rect x="53.103" y="79.076" transform="matrix(0.529609, -0.848242, 0.592706, 0.938886, -62.705139, 47.18206)" width="67.853" height="2.209" style=""></rect>
    <rect x="58.02" y="84.819" transform="matrix(0.529609, -0.848242, 0.592706, 0.938886, -64.842041, 54.554131)" width="69.82" height="2.209" style=""></rect>
    <rect x="63.347" y="89.781" transform="matrix(0.531712, -0.846926, 0.590371, 0.940359, -66.373352, 60.943924)" width="71.695" height="2.211" style=""></rect>
    <rect x="70.43" y="95.239" transform="matrix(0.550769, -0.834658, 0.569237, 0.952998, -67.545006, 63.795357)" width="67.516" height="2.236" style=""></rect>
    <rect x="76.703" y="99.838" transform="matrix(0.529609, -0.848242, 0.592706, 0.938886, -69.970299, 75.359276)" width="67.853" height="2.209" style=""></rect>
    <rect x="83.586" y="105.144" transform="matrix(0.529609, -0.848242, 0.592706, 0.938886, -72.039978, 81.6297)" width="63.92" height="2.209" style=""></rect>
    <rect x="93.195" y="111.152" transform="matrix(0.533816, -0.845601, 0.588034, 0.941819, -73.907326, 87.980675)" width="56.9" height="2.214" style=""></rect>
    <rect x="103.242" y="118.397" transform="matrix(0.56248, -0.826811, 0.556282, 0.960141, -75.647263, 86.634384)" width="43.902" height="2.251" style=""></rect>
  </g>
  <g style="" transform="matrix(1.219132, 0, 0, 1.172024, -2.107423, -0.94856)">
    <rect x="163.145" y="112.37" transform="matrix(0.525248, -0.850949, 0.59755, 0.935778, -86.751579, 142.537704)" width="4.929" height="73.589" style=""></rect>
    <polygon points="120.102 197.096 118.256 196.508 120.84 180.039 122.687 180.628" style=""></polygon>
    <polygon points="125.272 206.507 123.425 205.33 126.379 189.45 128.226 190.038" style=""></polygon>
    <rect x="249.527" y="169.252" transform="matrix(0.191174, -0.981556, 0.929348, 0.459231, -76.237709, 379.913177)" width="15.452" height="1.897" style=""></rect>
    <rect x="257.465" y="175.002" transform="matrix(0.199998, -0.979796, 0.923045, 0.478025, -78.314407, 389.845551)" width="15.414" height="1.902" style=""></rect>
    <rect x="266.449" y="181.164" transform="matrix(0.194325, -0.980937, 0.927123, 0.465975, -79.312881, 409.069672)" width="17.154" height="1.899" style=""></rect>
    <path d="M 148.166 254.148 C 148.166 254.148 148.166 254.148 148.166 254.148 C 147.058 254.148 146.688 252.972 146.319 252.384 L 143.365 240.032 L 109.763 187.097 C 109.393 186.509 109.393 185.921 109.393 185.921 C 109.393 185.921 109.393 185.921 109.393 185.921 C 109.393 185.921 109.393 185.921 109.393 185.921 C 109.393 185.921 109.393 185.333 109.393 185.333 C 109.393 184.745 109.393 184.157 109.763 183.568 C 109.763 183.568 109.763 183.568 109.763 183.568 L 115.671 172.981 C 116.04 171.217 116.409 171.217 116.779 171.217 C 117.148 171.217 117.886 171.217 118.256 171.805 L 152.966 223.564 L 161.459 227.681 C 162.197 227.681 162.567 228.857 162.567 230.033 C 162.567 231.21 162.567 232.386 162.197 232.974 L 149.643 253.56 C 149.273 254.148 148.904 254.148 148.166 254.148 Z M 113.455 184.745 L 146.319 235.915 C 146.319 235.915 146.688 236.503 146.688 237.091 L 148.904 245.914 L 157.397 231.798 L 151.489 228.857 C 151.12 228.857 151.12 228.269 150.75 228.269 L 117.148 177.687 L 115.302 180.628 C 115.302 180.628 115.302 180.628 115.302 180.628 L 113.455 184.745 Z" style=""></path>
    <rect x="240.066" y="214.096" transform="matrix(0.506594, -0.862185, 0.618284, 0.921694, -109.769623, 246.898026)" width="13.946" height="2.18" style=""></rect>
  </g>
</svg>